<svg width="70" height="64" viewBox="0 0 70 64" fill="none" xmlns="http://www.w3.org/2000/svg">
<path d="M69.6547 23.0203C69.6547 16.2696 69.65 9.51425 69.6547 2.76355C69.6547 1.65397 69.7992 0.628312 68.0742 0.637636C55.1929 0.684257 42.3069 0.665609 29.4256 0.646961C28.2367 0.646961 27.7658 1.10385 27.7752 2.29734C27.8125 6.6424 27.8125 10.9921 27.7798 15.3372C27.7705 16.4747 28.302 16.8104 29.3416 16.8244C30.5538 16.8384 30.4605 16.0318 30.4605 15.2486C30.4652 11.9898 30.5351 8.72636 30.4419 5.47222C30.3906 3.7659 30.9734 3.14118 32.7123 3.1505C43.4258 3.20645 54.1346 3.20178 64.8481 3.14584C66.4239 3.13651 67.0999 3.61205 67.0952 5.23445C67.0579 17.1088 67.0626 28.9831 67.0672 40.8575C67.0672 42.1582 66.6616 42.8435 65.1884 42.8388C54.2418 42.8015 43.2999 42.8155 32.3533 42.8295C30.9734 42.8295 30.3999 42.2374 30.4512 40.8481C30.5165 39.0672 30.4559 37.277 30.4652 35.4914C30.4699 34.5916 30.4978 33.7385 29.1924 33.7944C28.0735 33.8457 27.7659 34.4471 27.7845 35.4681C27.8218 37.953 27.9244 40.4425 27.7565 42.9181C27.6167 44.9414 28.4325 45.4123 30.2974 45.403C42.6379 45.3424 54.9784 45.3424 67.3236 45.403C69.1092 45.4123 69.7479 44.9321 69.7153 43.0486C69.5941 36.3725 69.6594 29.6964 69.6547 23.0203Z" fill="#8EB7C1" stroke="#8EB7C1" stroke-width="0.5"/>
<path d="M32.744 28.9411C36.7814 28.8012 39.1218 26.4375 39.5227 22.4608C39.6999 20.6985 39.1964 20.1763 37.4201 20.1903C28.1845 20.2696 18.9443 20.223 9.70868 20.2416C8.86018 20.2416 7.99769 20.3069 7.16318 20.4607C3.4475 21.1507 1.22368 23.5144 1.11179 27.2954C0.957944 32.4143 0.990579 37.538 1.04652 42.6616C1.07916 45.2957 2.32394 47.375 4.91139 48.1069C5.96036 48.4006 6.45921 48.8668 6.67366 49.5009V62.0745C6.67366 62.8251 7.27973 63.4312 8.03033 63.4312C8.78092 63.4312 9.387 62.8251 9.387 62.0745V61.8554C9.48956 61.4125 9.48024 61.0256 9.387 60.6759V46.7549C9.387 46.5871 9.35436 46.4332 9.29842 46.284C9.30774 46.1861 9.32173 46.0882 9.33105 45.9903C9.78794 41.5334 9.45693 36.9972 9.43828 32.4982C9.43362 31.6171 9.70868 30.5915 8.15154 30.6241C6.72028 30.6521 6.77157 31.5099 6.77623 32.4889C6.78555 36.2139 6.8042 39.9389 6.76224 43.6639C6.75292 44.3633 7.20048 45.4309 6.20745 45.678C5.15382 45.939 4.57106 44.9367 4.08154 44.1721C3.81114 43.7479 3.73189 43.1325 3.72722 42.6056C3.72256 37.4867 3.6806 32.363 3.81114 27.2441C3.86242 25.1182 5.08389 23.7195 7.23311 23.1041C8.92545 22.6193 10.6224 22.7545 12.3194 22.7498C19.7695 22.7265 27.2241 22.7312 34.6742 22.7452C35.3408 22.7452 36.2546 22.4748 36.5483 23.2673C36.856 24.0878 36.1147 24.6753 35.5599 25.2067C34.6602 26.0692 33.5366 26.2883 32.3384 26.2837C29.6205 26.279 26.8978 26.3862 24.1891 26.251C22.4968 26.1671 21.8954 26.61 21.9513 28.4096C22.0865 32.75 21.9933 37.0997 21.9979 41.4495C21.9979 48.2794 22.0026 55.1094 21.9979 61.9393C21.9979 62.7645 21.9886 63.5151 23.1448 63.5058C24.1705 63.4965 24.7812 63.1701 24.6693 62.0093C24.618 61.4731 24.6647 60.923 24.6647 60.3822C24.6647 50.6011 24.6973 40.8201 24.632 31.0437C24.6227 29.4586 25.0143 28.8059 26.6927 28.9178C28.702 29.0576 30.73 29.011 32.744 28.9411Z" fill="#8EB7C1" stroke="#8EB7C1" stroke-width="0.5"/>
<path d="M12.5891 17.6176C17.9365 19.7528 23.0741 16.7131 23.2233 9.44494C23.3119 7.4449 22.7804 5.5521 21.7501 3.90638C20.2815 1.56601 17.9878 0.503058 15.2278 0.694203C12.37 0.894673 10.286 2.31661 9.14848 4.98798C7.05986 9.88317 8.56572 16.0092 12.5891 17.6176ZM10.948 8.01368C11.2977 5.42156 13.0087 3.41686 15.2978 3.25369C17.5402 3.09518 19.1067 4.28401 20.0251 6.29803C20.5193 7.37963 20.6172 8.54049 20.5566 9.32372C20.482 14.1443 17.4517 16.6479 13.8898 15.2213C11.652 14.3261 10.4818 11.4543 10.948 8.01368Z" fill="#8EB7C1" stroke="#8EB7C1" stroke-width="0.5"/>
<path d="M37.3879 33.7475C37.2388 33.7149 37.0802 33.7522 36.9217 33.7522C36.0126 33.7615 35.4811 34.0785 35.5184 35.1321C35.5557 36.1252 36.1525 36.2557 36.9077 36.2604C38.4602 36.2697 40.0174 36.1765 41.5605 36.3023C43.1549 36.4329 44.092 35.976 44.7167 34.3769C45.6725 31.9246 46.6329 29.1693 49.7891 30.4141C54.4232 30.4188 54.3859 30.4048 55.4442 27.6821C56.7542 24.3068 58.2694 21.0014 59.4256 17.5747C60.013 15.8311 60.7497 14.8754 62.6751 15.1504C63.0947 15.2111 63.6868 15.2157 63.7754 14.5957C63.8639 13.9989 64.0224 13.3182 63.5795 12.8054C62.7917 11.901 58.5958 12.6422 58.1109 13.7751C56.8661 16.6796 55.1971 19.5095 54.5584 22.5445C53.5561 27.3045 50.7914 28.5539 46.4883 27.9059C45.3181 27.7288 44.5769 28.1623 44.2226 29.3372C43.1922 32.7312 41.1269 34.5447 37.3879 33.7475Z" fill="#8EB7C1" stroke="#8EB7C1" stroke-width="0.5"/>
<path d="M17.0066 44.0739C17.0113 43.3606 16.8061 42.8478 15.9763 42.8711C15.3795 42.8898 14.6103 42.7266 14.5963 43.659C14.5823 44.4656 14.5776 45.2674 14.5683 46.074C14.4518 46.2744 14.3818 46.5029 14.3818 46.7546V62.0743C14.3818 62.1908 14.4005 62.3074 14.4285 62.4146C14.4471 62.9834 14.6989 63.4169 15.6872 63.4263C15.7012 63.4263 15.7152 63.4309 15.7338 63.4309C15.7432 63.4309 15.7478 63.4309 15.7572 63.4309C15.7711 63.4309 15.7805 63.4309 15.7944 63.4309C16.8201 63.4076 17.0485 62.9647 17.0439 62.4146C17.0719 62.3074 17.0905 62.1955 17.0905 62.0743V46.7546C17.0905 46.5915 17.0579 46.4376 17.0066 46.2931C17.0019 45.5565 17.0019 44.8152 17.0066 44.0739Z" fill="#8EB7C1" stroke="#8EB7C1" stroke-width="0.5"/>
</svg>
