<svg width="72" height="68" viewBox="0 0 72 68" fill="none" xmlns="http://www.w3.org/2000/svg">
<path d="M28.6243 5.45515C27.8583 6.79319 26.939 7.77883 25.5856 8.33039C23.6705 9.11176 22.5827 10.5111 22.3274 12.4926C21.5664 18.3861 19.7739 23.8097 15.5044 28.1711C15.4431 28.2324 15.3768 28.2988 15.3563 28.3754C13.7221 33.8398 10.852 38.38 5.75007 41.2654C5.68367 41.3012 5.66325 41.4135 5.61218 41.4748C5.36193 41.7557 5.17808 41.9906 5.07594 42.2153C5.07594 42.2153 2.95654 44.2632 3.60002 47.496C3.53363 48.9259 3.03314 50.029 2.32838 50.9483C-1.3078 55.7182 2.89525 64.5942 10.3872 64.3082C11.3218 64.2724 12.2462 64.1907 13.048 64.8802C15.5044 66.9945 18.1601 66.9281 21.0915 65.8607C23.0015 65.1662 24.886 64.4308 26.6683 63.4962C27.5008 63.0621 28.1034 62.9651 29.0073 63.2357C33.047 64.4206 37.1224 64.7372 41.3203 63.9201C42.9392 63.6034 44.6143 62.5054 46.3813 63.6954C48.368 65.0283 50.6865 65.5849 52.9285 66.3152C54.8692 66.9434 56.6566 67.0251 58.4492 65.7688C59.6749 64.9057 61.0027 64.2776 62.6778 64.3337C69.4088 64.5584 73.7038 57.3422 70.2719 51.1679C69.4905 49.7635 69.0871 48.3182 69.3169 46.7708C69.5824 44.9731 68.7653 43.6402 67.698 42.4145C66.0841 40.5658 64.2456 38.9468 62.1109 37.7161C61.1712 37.1696 60.6707 36.5414 60.3745 35.4281C59.1693 30.888 57.438 26.5164 53.8376 23.3348C51.9122 21.6341 51.5394 19.7496 51.2636 17.3698C50.8244 13.5906 50.5282 9.47436 45.983 7.77883C45.0791 7.44177 44.4662 6.56337 43.9453 5.62368C40.5849 -0.45875 32.0715 -0.566003 28.6243 5.45515ZM23.8646 19.6424C23.8544 17.0174 24.457 14.658 25.366 12.3445C25.6214 11.6908 26.1015 11.3486 26.6683 11.2822C27.3476 11.2056 27.6029 11.8031 27.8685 12.3751C28.8899 14.5865 30.0236 16.7518 28.4405 19.193C27.4957 20.6536 28.4251 22.0018 28.9103 23.299C29.2116 24.1008 29.5334 24.8566 29.564 25.7197C29.5946 26.7411 29.2218 27.7625 28.3741 28.0945C27.3578 28.4979 27.0973 27.3029 26.6734 26.639C25.2639 24.4634 23.4969 22.4053 23.8646 19.6424ZM8.23207 43.4104C9.24836 42.2817 9.38625 40.3002 10.4638 40.0091C13.7783 39.1103 17.2255 38.3289 20.7493 38.8498C22.0669 39.0439 22.3121 39.7231 21.4949 40.77C20.448 42.1132 18.9772 42.3787 17.3991 42.3787C17.0314 42.3787 16.7812 42.4554 16.6075 42.583C15.6525 42.9099 14.0847 43.7372 13.334 45.7034C12.762 45.8158 12.1134 46.0711 11.4546 46.3009C10.7294 46.0864 8.50784 45.2744 8.23207 43.4104ZM5.38747 59.0735C3.52852 56.7958 3.47745 54.7939 5.21894 52.3221C5.88795 51.3722 6.78168 50.5755 7.72647 49.5439C7.72647 49.5439 9.26879 49.263 10.6068 49.4928C10.8366 49.7277 11.1788 49.9065 11.7048 49.9933C14.1817 50.407 15.9334 53.0115 16.0356 55.5854C16.1275 57.9602 14.2073 60.5035 11.4239 61.3002C8.97258 61.9998 6.94 60.9784 5.38747 59.0735ZM17.8639 63.7362C17.0519 63.7975 16.3011 63.7311 15.8875 62.9395C15.4534 62.1071 16.4033 61.8364 16.6739 61.29C17.9303 58.7365 19.8709 57.4035 22.8534 57.475C24.2578 57.5108 24.6 55.8663 25.3967 54.9726C26.2955 53.9614 27.0718 52.7919 28.6754 52.9604C30.0032 52.843 30.3198 53.3639 29.8857 54.6151C28.2515 59.3033 22.9402 63.3532 17.8639 63.7362ZM56.7179 62.4339C57.5095 63.3992 56.0029 63.7464 55.3084 63.8026C50.232 63.8179 44.3896 59.4004 42.7809 54.5794C42.403 53.4456 42.7247 53.0064 43.8789 52.9656C45.3293 52.9094 46.2894 53.6703 47.0044 54.7888C48.1994 56.663 49.7264 57.9244 52.0756 57.9449C54.9764 57.9653 55.3748 60.8048 56.7179 62.4339ZM68.4793 55.6263C68.4691 59.0327 65.9054 61.6628 62.642 61.6168C59.4706 61.5708 56.6515 58.7416 56.6464 55.6059C56.6413 52.3221 59.2459 49.8145 62.6829 49.8043C66.314 49.789 68.4895 51.9748 68.4793 55.6263ZM64.6542 43.4563C65.4407 44.2837 66.7583 45.0855 66.2527 46.3724C65.7164 47.7462 64.2916 46.6278 63.3264 46.8729C61.3295 47.3479 60.0732 46.3316 59.1182 44.7841C58.1377 43.201 56.6822 42.5422 54.8896 42.4247C54.1389 42.3736 53.3473 42.3481 52.663 42.0825C51.6058 41.6638 50.6304 40.7956 50.8142 39.6618C50.9725 38.6609 52.234 39.1511 53 38.9826C57.8568 37.9408 61.4878 40.1266 64.6542 43.4563ZM52.3361 25.781C54.4708 28.1302 55.9365 30.888 56.9733 33.8654C57.4278 35.1728 57.1111 35.9695 55.4718 35.9593C53.5209 35.949 51.5649 36.2146 49.6141 36.2095C48.2658 36.2095 47.9339 36.8325 47.796 38.0429C47.3159 42.1796 50.6457 45.5093 54.1338 45.3051C55.7169 45.2131 56.7537 46.0711 57.4176 47.2968C58.1223 48.5991 56.6004 48.9668 56.0489 49.6818C55.2062 50.7798 54.5781 51.939 54.1491 53.2362C53.4647 55.2995 51.8152 55.6876 50.2116 54.1453C49.6702 53.6244 49.2821 52.9502 48.7765 52.3834C46.412 49.7481 43.6389 49.3907 40.5798 50.9994C38.7464 51.9646 38.6851 53.0983 39.5788 54.6713C40.4062 56.137 41.1824 57.6385 41.9995 59.1144C42.5051 60.0285 42.5307 60.5035 41.2795 60.9018C37.9905 61.9488 34.8038 61.7445 31.52 60.8763C30.1002 60.4984 30.1462 60.0132 30.6978 58.9867C31.617 57.2759 32.475 55.5293 33.3942 53.8133C34.0582 52.5723 33.6241 51.8165 32.521 51.0862C29.4108 49.0332 26.0708 49.6613 23.4101 52.9043C21.0813 55.7438 19.5083 55.6263 18.4512 52.174C17.7924 50.0137 15.9896 48.737 15.1623 46.5869C15.1112 46.4541 15.055 46.3418 14.9886 46.2396C15.6525 45.8209 16.3879 45.4225 17.0263 45.4174L17.0314 45.4174C17.1182 45.4378 17.2153 45.4532 17.3225 45.4583C21.1323 45.78 24.8553 42.8537 25.172 39.049C25.315 37.3381 24.8196 36.0767 22.6747 36.092C21.0711 36.1022 19.4572 35.6988 17.8537 35.709C16.1122 35.7192 15.7598 34.8715 16.2092 33.4772C17.1234 30.6224 18.6554 28.1149 20.6676 25.8883C21.546 24.9179 22.215 25.0711 22.8585 26.0874C23.7573 27.5174 24.7328 28.9014 25.5448 30.3773C26.6326 32.3588 28.0779 32.0524 29.5691 31.0872C32.0562 29.4785 32.9908 26.3275 31.9694 23.1764C31.6323 22.1346 31.1523 21.1439 31.2902 19.9948C31.4689 18.524 31.8315 17.5945 33.7109 18.2482C35.3196 18.8048 37.0764 18.6006 38.7668 18.2992C40.6104 17.9673 41.8259 19.3155 41.2846 21.1592C41.0241 22.0529 40.5951 22.8955 40.3602 23.7944C39.5941 26.7156 40.4981 29.2895 42.9137 30.9697C44.4713 32.0524 45.9013 32.5069 47.0044 30.2496C47.7041 28.8146 48.9451 27.6399 49.5834 26.1896C50.4005 24.351 51.279 24.6166 52.3361 25.781ZM47.0095 12.227C48.1739 14.4486 48.5722 16.8438 48.5263 19.5913C49.1187 22.7219 46.8563 25.015 45.2987 27.5582C44.7216 28.4979 44.1496 28.5132 43.4704 27.4101C42.7554 26.256 42.6328 25.1682 43.261 24.0855C44.5581 21.8588 44.5479 19.6373 43.5367 17.3391C42.4541 14.8725 44.553 13.2995 45.3804 11.4354C45.7225 10.6592 46.652 11.5478 47.0095 12.227ZM42.3111 9.90845C42.2753 13.1463 39.5482 15.7815 36.2184 15.7968C33.0725 15.8121 30.1207 12.9012 30.1462 9.81653C30.1717 6.75744 33.1185 3.9588 36.3052 3.9588C39.5992 3.96391 42.3468 6.68594 42.3111 9.90845Z" fill="#8EB7C1" stroke="#8EB7C1" stroke-width="0.5"/>
</svg>
