<svg width="60" height="85" viewBox="0 0 60 85" fill="none" xmlns="http://www.w3.org/2000/svg">
<path d="M28.8428 24.2596C28.8746 20.5607 30.7388 18.2907 33.5423 17.043C37.8322 15.1312 43.3755 16.7371 45.0633 21.9453C46.0837 25.0887 45.5046 27.7531 43.1955 29.991C42.2386 30.9207 41.3453 31.8142 41.5254 33.4805C41.6384 34.535 40.9887 35.1307 40.1625 35.1871C39.2198 35.2515 38.6231 34.5632 38.5313 33.4926C38.3724 31.6492 39.0468 30.1077 40.0425 28.7272C40.2261 28.4736 40.4556 28.2562 40.6851 28.055C41.935 26.9522 43.1037 25.7407 42.5529 23.7162C41.9985 21.6675 40.731 20.4037 38.8667 19.8322C37.1825 19.317 35.5937 19.5303 34.086 20.3836C31.2896 21.9694 30.8906 25.3785 33.2492 27.737C34.6686 29.1578 35.7773 30.6792 35.802 32.9533C35.8126 34.04 35.6607 35.0542 34.5344 35.183C33.4081 35.3159 32.9985 34.5028 33.0056 33.2994C33.0162 31.943 32.2041 31.1542 31.3955 30.3492C29.5419 28.5058 28.8534 26.8073 28.8428 24.2596Z" fill="#8EB7C1" stroke="#8EB7C1" stroke-width="0.5"/>
<path d="M23.8332 69.7936C23.8332 73.8636 23.84 77.9335 23.8263 82.0035C23.8263 82.4898 23.7646 82.979 23.6755 83.4564C23.5796 83.9751 23.0929 84.1932 22.5651 84.2256C21.9688 84.2639 21.393 84.0871 21.2251 83.5271C21.0845 83.0615 21.0263 82.5664 21.0263 82.0831C21.0126 73.8459 21.016 65.6058 21.016 57.3686C21.016 56.175 22.1024 55.3793 23.3705 55.7123C24.1142 55.9098 23.816 56.5464 23.816 56.9914C23.8434 61.2617 23.8332 65.5291 23.8332 69.7936Z" fill="#8EB7C1" stroke="#8EB7C1" stroke-width="0.5"/>
<path d="M34.0015 45.8903C34.3112 46.3101 34.03 46.905 33.5084 46.9539C32.9298 47.0069 29.5843 47.504 28.0154 47.773C27.718 47.8218 27.4409 47.94 27.1801 48.0908C24.7759 49.4885 21.9479 49.4559 19.3277 50.2138C17.2984 50.8006 15.2527 51.31 13.2112 51.8479C10.7296 52.4958 10.3751 55.1119 8.92438 56.64C5.79483 59.9366 6.16857 60.8913 4.43265 65.0966C3.74398 66.7633 2.74155 67.3419 1.68614 66.7103C0.704084 66.1235 0.91598 65.0355 1.45387 64.192C4.86867 58.8742 5.43216 56.42 8.91215 51.1429C10.3017 49.0362 12.7467 48.6694 14.9105 48.0663C18.6146 47.0354 22.4409 46.4323 26.1328 45.3687C27.828 44.8757 33.2395 44.8675 34.0015 45.8903Z" fill="#8EB7C1" stroke="#8EB7C1" stroke-width="0.5"/>
<path d="M16.6768 30.4556C20.7843 30.4556 24.081 33.6462 24.1013 37.6519C24.1217 41.6942 20.6254 45.2231 16.5912 45.1213C13.0297 45.0275 9.2156 42.1384 9.34192 37.6967C9.46417 33.5281 12.4715 30.4556 16.6768 30.4556ZM20.5887 37.7252C20.5887 35.4555 18.9139 33.7644 16.6605 33.7603C14.5293 33.7563 12.61 35.647 12.6182 37.7415C12.6263 39.8687 14.4886 41.6739 16.6727 41.682C18.9873 41.6861 20.5887 40.0724 20.5887 37.7252Z" fill="#8EB7C1" stroke="#8EB7C1" stroke-width="0.5"/>
<path d="M12.4301 72.765C12.4301 75.9509 12.4268 79.1368 12.4335 82.3258C12.4335 83.0668 12.3063 83.7744 11.4797 84.1116C10.4623 84.5276 9.61894 83.823 9.60221 82.4624C9.56205 79.5286 9.58882 76.5948 9.58882 73.661C9.58882 70.1713 9.58213 66.6817 9.59886 63.1921C9.60221 62.4997 9.52523 61.7283 10.5158 61.4488C11.6972 61.1178 12.4034 61.6645 12.4201 63.0555C12.4569 66.293 12.4301 69.5305 12.4301 72.765Z" fill="#8EB7C1" stroke="#8EB7C1" stroke-width="0.5"/>
<path d="M15.3104 78.5187C15.3104 76.9744 15.3427 75.43 15.2974 73.8877C15.278 73.2093 15.7599 72.799 16.7495 72.7928C17.794 72.7846 18.1627 73.2526 18.1562 73.9042C18.1304 76.9579 18.1368 80.0116 18.1498 83.0652C18.153 83.6879 17.8717 84.2158 16.8045 84.2302C15.6758 84.2447 15.2942 83.7251 15.3039 83.0488C15.3233 81.5374 15.3104 80.0281 15.3104 78.5187Z" fill="#8EB7C1" stroke="#8EB7C1" stroke-width="0.5"/>
<path d="M18.7079 24.4679C17.628 24.4679 16.5482 24.4964 15.4683 24.4597C14.2214 24.419 13.6305 23.5999 13.6468 22.4834C13.6672 21.3831 14.3762 20.8493 15.5335 20.8697C17.7625 20.9064 19.9915 20.8779 22.2164 20.8819C23.284 20.8819 24.0949 21.2283 24.1235 22.4589C24.152 23.6447 23.2963 24.1826 22.3468 24.3089C21.1528 24.4679 19.9222 24.3456 18.7079 24.3456C18.7079 24.3864 18.7079 24.4271 18.7079 24.4679Z" fill="#8EB7C1" stroke="#8EB7C1" stroke-width="0.5"/>
<path d="M54.0919 26.5182C52.9387 26.5182 51.7855 26.5345 50.6323 26.5141C49.5809 26.4937 48.9249 25.8417 48.8882 24.8882C48.8515 23.8409 49.4994 23.0585 50.6241 23.0219C52.9957 22.9444 55.3714 22.9444 57.7471 22.9485C58.884 22.9485 59.2793 23.7839 59.3119 24.713C59.3486 25.6991 58.8107 26.4367 57.7553 26.4978C56.5369 26.5671 55.3144 26.5141 54.0919 26.5141V26.5182Z" fill="#8EB7C1" stroke="#8EB7C1" stroke-width="0.5"/>
<path d="M37.7278 5.84434C37.7278 6.98939 37.7889 8.1426 37.7074 9.28358C37.6422 10.1964 37.0595 10.7832 36.1182 10.8035C35.1565 10.8239 34.5167 10.1475 34.4801 9.32026C34.3782 6.89567 34.3945 4.46294 34.476 2.03835C34.5086 1.08889 35.2991 0.632499 36.1834 0.677324C37.0636 0.722148 37.7115 1.21114 37.7278 2.20542C37.7482 3.41975 37.7319 4.63408 37.7319 5.84841C37.7359 5.84434 37.7319 5.84434 37.7278 5.84434Z" fill="#8EB7C1" stroke="#8EB7C1" stroke-width="0.5"/>
<path d="M28.5292 12.153C28.5944 13.5425 27.1844 14.4146 25.9905 13.5425C23.8797 12.0063 21.9278 10.2459 19.9555 8.53036C19.4828 8.1188 19.3321 7.53608 19.7029 6.88002C20.143 6.09763 20.9213 5.75534 21.5733 6.0854C24.222 7.43421 26.3409 9.4839 28.3866 11.6029C28.5088 11.7292 28.4925 11.99 28.5292 12.153Z" fill="#8EB7C1" stroke="#8EB7C1" stroke-width="0.5"/>
<path d="M47.6294 16.6631C46.9652 16.5449 46.4313 16.3941 46.1705 15.8603C45.816 15.1391 45.8486 14.3363 46.3295 13.7414C47.8453 11.8628 49.4264 10.0372 51.0197 8.2239C51.6432 7.51487 52.503 7.46597 53.212 7.99978C53.9048 8.52545 54.1819 9.32414 53.5869 10.1391C52.0466 12.2499 50.4329 14.3037 48.5748 16.1496C48.3099 16.4145 47.8902 16.5245 47.6294 16.6631Z" fill="#8EB7C1" stroke="#8EB7C1" stroke-width="0.5"/>
<path d="M34.6643 40.0159C33.5356 39.2295 33.0914 38.3289 33.9227 37.1309C34.5176 36.2751 36.9952 36.6582 38.181 36.9108C38.4214 36.9597 39.1631 37.0535 39.3301 37.1472C39.3505 37.1594 39.3668 37.1757 39.3831 37.1879C40.1614 37.6443 40.6423 39.1113 39.7621 39.8285C38.9145 40.5171 35.736 40.4805 34.6643 40.0159Z" fill="#8EB7C1" stroke="#8EB7C1" stroke-width="0.5"/>
<path d="M32.2114 47.1047C31.8854 47.1169 31.2049 46.9702 31.1886 46.3875C31.1723 45.6948 31.3434 44.8227 31.7794 44.3378C32.2684 43.7999 32.6474 44.5375 32.9897 44.9368C33.7558 45.8292 34.7256 45.3851 35.6384 45.3076C35.9685 45.2791 36.4004 45.2424 36.4982 45.6133C36.6245 46.0859 36.2455 46.3467 35.8218 46.4323C34.7052 46.6524 33.5805 46.848 32.2114 47.1047Z" fill="#8EB7C1" stroke="#8EB7C1" stroke-width="0.5"/>
<path d="M35.1835 44.4837C34.7189 44.4633 33.9692 44.879 33.8388 44.2026C33.6921 43.4405 34.56 43.6647 35.0042 43.4813C36.1533 43.0127 37.2984 42.5115 38.1052 44.0151C38.2967 44.3737 38.5046 44.7608 38.1337 45.1031C37.7955 45.4128 37.5347 45.0909 37.2902 44.8831C36.6668 44.3615 35.9577 44.3044 35.1835 44.4837Z" fill="#8EB7C1" stroke="#8EB7C1" stroke-width="0.5"/>
<path d="M35.8612 42.479C35.3967 42.4586 34.6469 42.8742 34.5165 42.1978C34.3698 41.4358 35.2378 41.6599 35.6819 41.4765C36.8311 41.0079 37.9761 40.5067 38.783 42.0103C38.9745 42.3689 39.1823 42.7561 38.8115 43.0983C38.4733 43.408 38.2125 43.0861 37.968 42.8783C37.3445 42.3526 36.6395 42.2997 35.8612 42.479Z" fill="#8EB7C1" stroke="#8EB7C1" stroke-width="0.5"/>
</svg>
