<svg width="64" height="59" viewBox="0 0 64 59" fill="none" xmlns="http://www.w3.org/2000/svg">
<path d="M31.9936 34.3887C26.1056 34.3887 20.2175 34.4048 14.3255 34.3766C13.0675 34.3686 12.2154 34.6017 12.34 36.129C12.4083 37.0011 12.6736 37.4995 13.6543 37.4754C15.1253 37.4392 16.6003 37.4312 18.0713 37.5035C20.4506 37.6201 22.0583 38.8821 22.7737 41.1328C24.2929 45.8915 25.8001 50.6541 27.2992 55.4208C27.3997 55.7384 27.3957 56.084 27.4801 56.4055C27.6489 57.0607 27.9584 57.6675 26.8772 57.9087C25.9488 58.1137 25.4786 57.8122 25.2294 56.9803C23.9634 52.7722 22.6049 48.5883 21.4635 44.3441C20.3501 40.2004 19.9201 39.7944 15.5754 39.7382C13.8592 39.7181 11.6567 40.4857 10.5515 39.4046C9.43417 38.3114 10.0772 36.0767 10.2179 34.3847C10.3907 32.3269 8.94383 31.4266 7.8466 30.2369C7.3 29.6461 6.50019 29.2321 7.3844 28.2997C8.30479 27.3311 8.88354 27.8696 9.45024 28.6694C11.6367 31.7441 14.6229 32.8092 18.2924 32.2304C19.4579 32.0455 20.6918 32.4957 21.8131 31.7803C22.5165 31.3341 22.8661 30.7152 22.7857 29.9475C22.6772 28.9227 21.7568 29.1517 21.2022 29.2603C16.9982 30.0922 14.0039 28.2153 11.6809 25C10.1737 22.9181 8.16412 22.6367 5.87321 22.8738C4.29369 23.0386 3.36526 23.9389 3.34517 25.4541C3.27684 30.4781 3.23263 35.498 3.36928 40.5139C3.44163 43.1102 5.97369 45.164 8.92775 45.2685C11.2669 45.3529 13.6101 45.3087 15.9532 45.2846C16.8414 45.2765 17.4363 45.4534 17.7457 46.4501C18.7907 49.8182 19.9201 53.1661 21.0615 56.506C21.2826 57.1451 21.5438 57.6876 20.6034 57.8323C19.9563 57.9328 19.2529 58.4392 18.9033 57.2214C18.1678 54.6652 17.175 52.1854 16.4154 49.6333C15.9492 48.0698 15.2177 47.3062 13.4412 47.4147C11.3834 47.5353 9.28948 47.6679 7.2357 47.274C3.52201 46.5667 1.03818 43.6046 1.01809 39.8427C0.993971 35.1604 0.993971 30.474 1.01809 25.7917C1.03416 22.7171 3.07187 20.8 6.09426 20.5347C9.08852 20.2735 11.5523 20.8442 13.4171 23.4285C14.2652 24.6021 15.4066 25.6069 16.548 26.5192C17.806 27.524 19.2288 27.0296 19.064 25.6672C18.4612 20.7437 21.2705 18.6738 25.4384 17.5324C30.3859 16.1739 35.229 16.4432 39.9193 18.4608C42.4715 19.5581 43.8501 21.5033 43.5647 24.4654C43.4843 25.2934 43.0583 26.5473 44.3002 26.889C45.514 27.2266 46.8483 27.2828 47.8893 26.27C49.509 24.6865 51.1488 23.123 52.6761 21.4591C53.291 20.7919 53.8979 20.5227 54.762 20.5588C55.8311 20.603 56.9042 20.5508 57.9733 20.5829C60.9515 20.6673 62.8646 22.4679 62.9088 25.4622C62.9852 30.3454 63.0013 35.2327 62.9128 40.116C62.8365 44.3361 59.8422 47.2499 55.5056 47.4429C53.6367 47.5273 51.7597 47.4991 49.8868 47.4549C48.7655 47.4308 48.2148 47.901 47.8973 48.9782C47.1297 51.5946 46.2455 54.1789 45.4055 56.7753C45.1442 57.5872 44.8548 58.1981 43.7255 57.9288C42.4836 57.6354 42.9176 56.92 43.1306 56.2649C44.2279 52.9089 45.3693 49.565 46.4625 46.209C46.7237 45.4132 47.2422 45.2765 47.9898 45.2886C50.2646 45.3248 52.5394 45.3368 54.8143 45.2846C58.544 45.1962 60.7385 42.9454 60.7586 39.2076C60.7827 34.9273 60.7385 30.6428 60.7747 26.3584C60.7867 24.8995 60.4411 23.4285 59.0143 23.115C57.3463 22.7533 55.4131 22.1826 53.8698 23.5491C52.3787 24.8673 50.9358 26.27 49.6376 27.7772C48.6087 28.9709 47.4432 29.3728 45.94 29.2643C44.8106 29.1799 43.6652 29.2522 42.5278 29.2683C41.9932 29.2763 41.3743 29.2442 41.1934 29.8953C41.0407 30.4499 41.3823 30.9041 41.732 31.3341C42.2906 32.0295 43.0261 32.2264 43.8661 32.2264C45.8717 32.2184 47.8813 32.1741 49.8868 32.2465C50.8916 32.2827 51.5105 31.7401 52.1255 31.1372C53.1262 30.1606 54.1029 29.1638 55.0675 28.159C55.6221 27.5803 56.0682 27.6848 56.5666 28.2394C56.9926 28.7177 57.487 29.2361 56.7153 29.6983C53.3714 31.6959 53.7653 34.9313 53.9381 38.0461C54.0185 39.5211 53.4598 39.8748 52.1054 39.7904C50.3731 39.6859 48.6288 39.7462 46.8885 39.7743C44.5213 39.8145 43.7255 40.546 43.0623 42.7887C41.6797 47.4469 40.1967 52.0769 38.7819 56.7271C38.5287 57.563 38.3117 58.2302 37.1662 57.9087C35.7917 57.5188 36.5031 56.6427 36.692 55.9956C38.0504 51.3294 39.4571 46.6752 40.8598 42.021C41.8445 38.7575 43.5486 37.5116 47.0212 37.4754C47.9576 37.4673 48.8941 37.4473 49.8305 37.4794C50.8353 37.5116 51.6351 37.5156 51.6392 36.0807C51.6432 34.7062 51.0966 34.3847 49.8506 34.3927C43.8943 34.4329 37.9379 34.4128 31.9815 34.4128C31.9936 34.3967 31.9936 34.3927 31.9936 34.3887ZM31.9172 32.2264C33.5852 32.2264 35.2612 32.138 36.9211 32.2505C38.6654 32.3671 39.4049 31.9571 38.8422 30.0239C38.4282 28.6051 38.1992 26.9894 40.5503 26.9131C40.7915 26.905 41.117 26.5554 41.2416 26.2901C42.1379 24.4011 41.117 21.5154 39.1557 20.6271C34.6543 18.5894 30.0081 18.4367 25.3339 19.9359C24.1563 20.3137 22.9586 20.7759 22.0784 21.7806C20.8968 23.1311 21.359 24.7387 21.5117 26.1816C21.6483 27.4516 23.0068 27.0095 23.8508 27.0136C25.0365 27.0176 25.3861 27.6124 25.3379 28.6293C25.3098 29.2241 25.2937 29.843 25.1289 30.4097C24.6908 31.8968 25.3218 32.3028 26.7125 32.2425C28.4447 32.1701 30.181 32.2224 31.9172 32.2264Z" fill="#8EB7C1" stroke="#8EB7C1" stroke-width="0.5"/>
<path d="M6.26662 11.8699C6.25859 7.31621 8.47715 4.80023 12.3516 4.96099C14.743 5.06147 16.423 6.54856 17.3635 9.39009C18.4647 12.7099 17.1223 16.9501 14.5822 18.184C10.0808 20.3744 6.27064 17.4806 6.26662 11.8699ZM8.47313 12.4567C8.49323 12.6094 8.47715 13.369 8.69016 14.0523C9.11217 15.3947 9.98031 16.3713 11.4594 16.5924C12.9746 16.8215 14.112 16.102 14.747 14.84C15.7639 12.8224 15.792 10.6762 14.5943 8.73497C13.272 6.58875 10.543 6.70932 9.15237 8.81937C8.5294 9.76789 8.46509 10.8048 8.47313 12.4567Z" fill="#8EB7C1" stroke="#8EB7C1" stroke-width="0.5"/>
<path d="M47.9015 11.7897C47.6603 9.2617 48.3074 7.03108 50.7872 5.6284C53.9824 3.81577 58.098 5.68065 58.8255 9.30993C59.2636 11.4963 59.364 13.7229 58.4396 15.7807C57.3545 18.2003 54.73 19.2895 52.0733 18.6785C49.6498 18.1159 48.0341 16.1224 47.9055 13.5059C47.8773 12.9714 47.9015 12.4368 47.9015 11.7897ZM50.1843 11.9505C50.1843 15.0533 51.3499 16.681 53.5363 16.6248C55.6584 16.5725 56.9043 14.7679 56.8762 11.7897C56.8521 8.92007 55.6142 7.27223 53.48 7.25615C51.1771 7.23605 50.1843 8.65079 50.1843 11.9505Z" fill="#8EB7C1" stroke="#8EB7C1" stroke-width="0.5"/>
<path d="M37.03 7.85476C37.4841 13.6423 32.9023 16.0176 29.2409 14.5627C26.8374 13.6062 25.905 11.6529 25.7563 9.21323C25.5714 6.15869 25.8447 3.27294 28.9194 1.59696C30.5793 0.692656 33.6057 1.17495 35.1088 2.56558C36.6964 4.02452 37.2591 5.8894 37.03 7.85476ZM34.7511 8.13208C34.7552 5.11773 33.9553 3.82759 31.9739 3.54625C29.9965 3.26491 28.7948 4.13706 28.1517 5.95773C27.368 8.16424 28.0633 11.1866 29.6107 12.1753C31.146 13.156 32.6572 12.9028 33.8951 11.5323C34.7994 10.5315 34.7552 9.33783 34.7511 8.13208Z" fill="#8EB7C1" stroke="#8EB7C1" stroke-width="0.5"/>
</svg>
