<svg width="65" height="69" viewBox="0 0 65 69" fill="none" xmlns="http://www.w3.org/2000/svg">
<path d="M28.8052 44.4366C27.3666 38.6871 30.0855 34.6208 33.9649 30.7894C36.5974 28.1904 38.9519 25.2605 40.6206 21.8846C40.8652 21.3907 41.1913 20.9016 41.292 20.3741C41.5413 19.089 41.5221 17.5114 40.3857 16.9216C38.8128 16.1064 38.7361 18.0245 38.3189 18.8253C36.2522 22.8005 32.9531 25.7016 29.8026 28.6939C26.5946 31.7388 18.3804 31.595 15.11 28.5788C11.6814 25.4187 8.32475 22.1915 6.19087 17.9286C5.95111 17.449 5.82164 16.629 4.91534 16.7249C3.95629 16.8209 4.21044 17.636 4.01383 18.1779C2.89175 21.2948 5.13112 23.3759 6.62244 25.4379C9.1735 28.9576 12.1322 32.1944 15.0381 35.4407C16.0163 36.5293 16.1218 37.6657 16.069 38.9509C16.0403 39.627 15.6662 39.9674 15.0141 40.001C14.4483 40.0298 13.868 40.0394 13.6283 39.3584C11.9691 34.6112 7.68698 31.8395 4.98247 27.8835C2.76228 24.6371 -0.0141634 21.5729 1.37166 17.0942C1.55867 16.4804 1.7313 15.9193 2.10053 15.3679C4.41184 11.8961 5.74971 11.7427 7.69178 15.2384C10.0366 19.4582 13.1248 22.9875 16.5965 26.2627C19.6655 29.159 25.5492 29.1014 28.575 26.1907C32.1283 22.7765 35.3123 19.1274 37.5085 14.6438C38.7649 12.0736 39.9493 12.0352 41.9921 14.1355C44.3657 16.5811 44.4904 20.7434 42.5723 24.0856C40.5727 27.567 37.9545 30.5544 35.2308 33.4076C32.4975 36.2751 30.9055 39.2913 31.4809 43.3673C31.7591 45.3237 31.6871 47.3665 31.4665 49.3421C31.3419 50.493 32.6366 52.6412 30.1047 52.6077C27.779 52.5789 28.973 50.5745 28.8436 49.462C28.6613 47.8076 28.8052 46.1149 28.8052 44.4366Z" fill="#8EB7C1" stroke="#8EB7C1" stroke-width="0.5"/>
<path d="M34.66 63.6039C34.66 64.7212 34.6744 65.8385 34.6552 66.9558C34.6408 67.6367 34.2092 67.9436 33.5667 67.9724C32.9768 67.9963 32.5021 67.8525 32.2048 67.2387C30.9437 64.6157 32.435 56.8187 34.7031 55.1643C36.8034 53.6346 39.273 52.7763 41.8816 52.9873C46.3651 53.3469 49.7266 50.7479 53.3278 48.8442C54.9726 47.9762 55.0637 45.9047 55.8309 44.3702C56.7804 42.4713 57.399 40.4142 58.3436 38.5104C58.8711 37.4507 59.4178 37.2205 60.6166 37.8055C63.0957 39.4407 64.7453 43.9099 63.9732 47.3672C62.7744 52.7427 59.6719 56.7755 55.1979 59.8301C52.8387 61.4413 51.0645 63.2874 51.6735 66.4715C51.8461 67.3778 51.4912 68.0443 50.3787 67.9676C49.4197 67.9004 49.0601 67.4401 48.9402 66.4571C48.5709 63.3306 49.1128 60.6692 51.9995 58.8422C53.1312 58.1277 54.0279 57.0344 55.1692 56.3439C58.5306 54.3012 59.7582 50.863 61.2256 47.5447C61.8969 46.0198 61.403 44.5668 61.1201 43.0899C61.029 42.6104 60.7892 42.1404 60.2425 42.0781C59.6096 42.0062 59.5185 42.5816 59.3362 43.0036C58.4203 45.0991 57.5284 47.1994 56.5982 49.2853C56.3776 49.784 56.133 50.4554 55.7158 50.6568C51.5967 52.6084 47.89 55.6534 43.0037 55.639C41.0808 55.6294 39.2011 55.6918 37.4028 56.5789C34.3051 58.1038 34.7175 60.9234 34.66 63.6039Z" fill="#8EB7C1" stroke="#8EB7C1" stroke-width="0.5"/>
<path d="M16.5986 19.4438C16.5938 15.1329 18.7517 12.8024 22.4968 12.6202C25.5849 12.4715 28.8313 15.6987 28.6395 19.3479C28.4189 23.5054 26.3282 26.0324 22.5591 26.0564C18.6174 26.0756 16.6034 23.8362 16.5986 19.4438ZM25.8439 19.3767C25.8391 16.7489 24.7074 15.3726 22.5447 15.3678C20.3581 15.363 19.1977 16.7249 19.1689 19.3287C19.1449 21.9085 20.5163 23.5821 22.6167 23.5245C24.693 23.4718 25.8439 21.9853 25.8439 19.3767Z" fill="#8EB7C1" stroke="#8EB7C1" stroke-width="0.5"/>
<path d="M23.8182 48.8781C23.823 53.1075 21.5501 55.6682 17.8146 55.6442C14.2613 55.6202 11.8397 52.9685 11.8014 49.0508C11.7582 44.8933 14.0503 42.2799 17.7667 42.2415C21.622 42.1984 23.8134 44.6008 23.8182 48.8781ZM21.2 48.8638C21.1904 46.4326 19.795 44.7255 17.829 44.7494C15.9061 44.7686 14.4244 46.586 14.4244 48.9165C14.4244 51.3189 15.8198 52.9397 17.8769 52.9301C20.0156 52.9205 21.2096 51.458 21.2 48.8638Z" fill="#8EB7C1" stroke="#8EB7C1" stroke-width="0.5"/>
<path d="M36.7221 44.269C36.444 39.2004 39.8294 37.5461 42.6778 37.5173C45.9625 37.4837 48.9116 40.0492 48.7438 44.293C48.5903 48.2394 46.3605 50.872 42.7737 50.9344C39.0478 51.0015 36.7269 48.4456 36.7221 44.269ZM45.9913 44.221C45.9913 41.881 44.5815 40.0875 42.7114 40.0348C40.8173 39.982 39.3211 41.7611 39.2972 44.1059C39.2684 46.6714 40.6734 48.4265 42.7162 48.3785C44.663 48.3305 45.9913 46.6474 45.9913 44.221Z" fill="#8EB7C1" stroke="#8EB7C1" stroke-width="0.5"/>
<path d="M7.24002 65.586C6.70295 62.7472 9.39308 59.4097 11.9298 58.6377C15.7659 57.4724 19.5973 57.2758 23.4575 58.5562C27.1259 59.7742 29.1926 63.1836 28.6028 66.9143C28.4685 67.763 28.0753 67.9932 27.3656 67.9932C26.6367 67.9932 25.7736 68.0028 25.8743 66.9526C26.162 63.9652 25.1694 61.7738 22.1628 60.8531C18.5903 59.7598 15.0467 59.8413 11.7571 61.7354C10.472 62.4739 9.88219 63.7926 9.88219 65.3942C9.88219 66.3868 10.6446 68.022 8.52994 67.9932C6.38647 67.9692 7.50855 66.2909 7.24002 65.586Z" fill="#8EB7C1" stroke="#8EB7C1" stroke-width="0.5"/>
<path d="M29.8648 9.82023C29.2894 9.70515 28.9106 9.39825 28.5797 8.88516C28.1913 8.28096 28.3543 7.80624 28.7427 7.38905C29.7018 6.35808 30.704 5.36067 31.711 4.36805C32.0946 3.98923 32.6125 3.90292 32.9194 4.39682C33.2359 4.90512 34.0127 5.1257 33.9024 5.90253C33.8353 6.38685 30.2964 9.80105 29.8648 9.82023Z" fill="#8EB7C1" stroke="#8EB7C1" stroke-width="0.5"/>
<path d="M17.9344 8.36513C16.8746 8.98371 16.3424 9.32417 15.7813 9.61189C15.2107 9.9044 14.7647 9.703 14.3379 9.24265C13.5371 8.38431 12.6836 7.57391 11.8444 6.75393C11.1395 6.06821 11.1827 5.44003 11.83 4.71116C12.5301 3.92474 13.0432 4.02544 13.7673 4.73513C14.8798 5.83324 16.1218 6.80188 17.9344 8.36513Z" fill="#8EB7C1" stroke="#8EB7C1" stroke-width="0.5"/>
<path d="M23.8488 2.20537C23.7097 3.17881 24.1077 7.42259 22.4438 7.42739C21.2881 7.43218 21.2354 3.68231 21.2354 2.83835C21.2306 1.50048 22.1081 0.632538 23.1966 0.531838C24.2036 0.435933 23.6426 1.62515 23.8488 2.20537Z" fill="#8EB7C1" stroke="#8EB7C1" stroke-width="0.5"/>
</svg>
