<svg width="67" height="68" viewBox="0 0 67 68" fill="none" xmlns="http://www.w3.org/2000/svg">
<path d="M33.6719 67.2346C23.4977 67.2346 13.3235 67.2476 3.145 67.2129C2.34737 67.2086 1.1249 67.7678 1.00786 66.1855C0.908155 64.8114 1.77082 64.6986 2.81555 64.7377C3.70422 64.7723 3.84727 64.1524 3.86895 63.4372C4.00333 59.4056 5.86737 56.6486 9.80787 55.4478C10.6445 55.192 10.8439 54.5765 10.9263 53.8005C11.3294 50.0551 13.6053 47.8356 17.0299 46.7778C20.0731 45.8415 22.7521 46.9122 24.8719 49.0797C25.8473 50.0768 26.1811 49.9727 27.1174 49.0927C30.8455 45.577 35.2846 45.5987 39.0126 49.1491C39.8796 49.9727 40.1354 50.1071 41.0674 49.1577C43.2436 46.9469 45.9616 45.8155 49.0915 46.8082C52.5204 47.8963 54.7443 50.1591 55.1128 53.9002C55.2038 54.8192 55.6329 55.2657 56.5173 55.5475C59.9636 56.6486 61.858 59.1152 62.0877 62.6655C62.2004 64.3822 62.8073 64.9934 64.4373 64.768C64.7928 64.7203 65.1569 64.7507 65.5167 64.768C66.3317 64.8113 66.5961 65.2925 66.6265 66.0598C66.6611 66.9095 66.2797 67.2389 65.4864 67.2389C63.8261 67.2346 62.1658 67.2389 60.5055 67.2389C51.5667 67.2346 42.6193 67.2346 33.6719 67.2346ZM38.7699 54.2513C38.8392 51.7761 35.8958 49.0277 33.1344 48.9843C30.2603 48.941 27.2388 51.6547 27.2778 54.2427C27.2908 55.0446 27.7634 55.3958 28.4786 55.5085C30.3687 55.8163 31.3614 58.0531 32.9177 58.1832C34.6213 58.3219 35.575 55.7556 37.5517 55.4998C37.7598 55.4738 37.9809 55.4131 38.1586 55.3047C38.5488 55.075 38.8089 54.7412 38.7699 54.2513ZM46.4124 48.98C44.5918 49.1881 42.9054 50.2588 41.8781 52.422C41.1151 54.0259 40.7596 55.1747 43.1179 55.6992C44.6481 56.0373 45.6798 58.2222 46.9023 58.2092C48.2375 58.1962 49.4469 56.1544 50.9165 55.7599C53.1057 55.1747 52.8456 53.9609 52.321 52.5434C51.5277 50.4279 49.1652 48.9366 46.4124 48.98ZM13.4189 54.1083C13.0461 55.7036 14.6847 55.2874 15.465 55.8336C16.6875 56.6833 17.8493 58.3436 19.024 58.3349C20.2162 58.3262 21.3086 56.5489 22.6047 55.8379C24.989 54.5288 25.2491 53.8569 23.7665 51.5767C22.453 49.5566 19.7393 48.4988 17.5241 49.1447C15.387 49.7603 13.4666 51.9971 13.4189 54.1083ZM39.9186 64.755C39.9186 64.7507 39.9186 64.7507 39.9186 64.7463C41.4316 64.7463 42.9488 64.7247 44.4617 64.755C45.4371 64.7723 45.8966 64.4169 45.8923 63.3678C45.8879 60.5544 43.1959 57.7193 40.2741 57.5416C37.5604 57.3769 34.6993 59.7438 34.3048 62.4575C34.0881 63.966 34.3005 65.0021 36.2426 64.781C37.452 64.6423 38.6918 64.755 39.9186 64.755ZM26.1074 64.7507C27.4686 64.7507 28.8384 64.677 30.1953 64.7723C31.5998 64.8677 31.8729 64.2305 31.7819 62.982C31.5608 60.0039 28.8428 57.4332 25.908 57.5329C22.9255 57.637 20.1685 60.4937 20.1468 63.3981C20.1381 64.4862 20.654 64.7637 21.5903 64.7507C23.0946 64.7377 24.5988 64.7507 26.1074 64.7507ZM53.9466 64.7507C55.3815 64.7507 56.8164 64.703 58.2513 64.7637C59.4607 64.82 59.9072 64.3735 59.8335 63.1381C59.6732 60.4894 57.7354 58.2482 54.9307 57.6326C52.7632 57.1558 49.9151 58.621 48.8487 60.7668C47.5395 63.3981 48.3155 64.7463 51.1462 64.7507C52.0826 64.755 53.0146 64.755 53.9466 64.7507ZM11.9884 64.7507C13.4319 64.7507 14.8755 64.7246 16.3147 64.7593C17.173 64.781 17.6238 64.5382 17.6889 63.5672C17.9056 60.4243 15.1746 57.5069 11.971 57.5373C8.94087 57.5676 6.12314 60.485 6.21417 63.3938C6.24885 64.4429 6.68235 64.7853 7.65772 64.7593C9.1056 64.7246 10.5492 64.7507 11.9884 64.7507Z" fill="#8EB7C1" stroke="#8EB7C1" stroke-width="0.5"/>
<path d="M33.0451 26.7943C27.2016 26.7943 21.358 26.7813 15.5145 26.816C14.8079 26.8203 13.7805 26.3565 13.451 27.3839C13.1389 28.3593 13.3036 29.3433 14.1663 30.1409C15.4321 31.3114 16.6285 32.5599 17.8423 33.791C18.1458 34.0988 18.4146 34.5409 18.9001 34.3372C19.3769 34.1378 19.2209 33.6046 19.2685 33.1928C19.3596 32.3908 19.0215 31.3461 20.4303 31.3417C21.9909 31.3374 21.6224 32.4948 21.6311 33.3532C21.6615 36.8168 21.6311 40.2761 21.6398 43.7398C21.6441 44.6111 21.3623 45.0403 20.387 45.0403C19.4463 45.0403 19.1688 44.4811 19.3162 43.8221C20.4043 38.8499 17.0664 36.1319 13.9192 33.4572C11.5349 31.4328 10.4078 29.1742 10.8197 26.0227C10.9801 24.7916 11.1491 24.2107 12.532 24.2844C14.5478 24.3928 16.5722 24.2367 18.588 24.3321C20.0879 24.4058 20.8291 23.8292 20.6341 22.3553C20.0792 18.1634 22.2207 15.9092 25.9531 14.7084C27.362 14.2532 28.1293 13.9324 27.0802 11.9687C25.1945 8.44435 25.7017 1.84651 31.4325 0.684738C35.5594 -0.151914 39.3525 2.40139 39.7513 6.57164C39.9594 8.71746 40.0331 10.911 38.5549 12.7707C38.0347 13.4252 38.052 13.8848 38.9884 14.1665C39.669 14.3703 40.2715 14.8124 40.9391 15.0682C43.9086 16.2126 45.842 18.055 45.3868 21.536C45.105 23.6775 45.9157 24.6442 48.1525 24.3277C49.0716 24.1977 50.0513 24.1717 50.9573 24.3407C52.3401 24.5965 54.6203 23.3697 54.9541 25.03C55.392 27.2062 56.0726 29.8592 53.7533 31.8229C52.119 33.2058 50.7405 34.8791 49.1192 36.2793C47.4069 37.7575 46.5139 39.4525 46.8477 41.7457C46.9517 42.4523 46.852 43.1849 46.8347 43.9045C46.8174 44.6935 46.4662 45.0489 45.6209 45.0273C44.871 45.0056 44.5632 44.6761 44.5588 43.9912C44.5415 40.0941 44.5372 36.2012 44.5242 32.3041C44.5198 31.5455 44.9446 31.3244 45.6296 31.3244C46.4272 31.3244 46.7957 31.6582 46.852 32.4775C46.8954 33.0844 46.5616 33.9861 47.2769 34.2288C48.1005 34.5063 48.3736 33.4832 48.8765 33.0367C49.9472 32.0787 50.9053 30.9949 51.963 30.0239C52.7823 29.2783 52.8213 28.3376 52.5959 27.4402C52.3141 26.3305 51.2737 26.816 50.5801 26.8117C44.7322 26.7727 38.8887 26.7943 33.0451 26.7943ZM33.0755 24.3147C35.2343 24.3147 37.3974 24.3147 39.5563 24.3147C43.1456 24.3147 43.4491 23.9419 43.0156 20.3612C42.8682 19.1388 42.0576 18.4972 41.1515 17.912C39.5606 16.8802 37.7356 16.4077 35.9366 15.9395C31.6623 14.8254 27.8171 16.178 24.2538 18.3671C22.2987 19.5679 22.8146 21.7527 23.1744 23.4954C23.4952 25.0387 25.1294 24.2324 26.1612 24.2844C28.463 24.3928 30.7736 24.3147 33.0755 24.3147ZM37.4581 8.01519C37.4711 5.02405 35.7111 2.93459 33.1145 2.8609C30.5048 2.78287 28.5714 4.98937 28.5758 8.04554C28.5801 11.0887 30.3184 13.0221 33.0365 13.0091C35.7675 13.0004 37.4451 11.1017 37.4581 8.01519Z" fill="#8EB7C1" stroke="#8EB7C1" stroke-width="0.5"/>
<path d="M41.1886 38.2215C41.1886 40.0205 41.1626 41.8239 41.1973 43.6229C41.2146 44.5809 40.9589 45.0535 39.8621 45.0405C38.6613 45.0274 38.8607 44.2385 38.8521 43.5709C38.8217 40.9786 38.7827 38.3819 38.8521 35.7896C38.8954 34.1987 38.2452 33.6004 36.6759 33.6481C34.1573 33.7218 31.63 33.7391 29.1114 33.6394C27.5334 33.5788 27.1216 34.2637 27.165 35.7072C27.2386 38.2996 27.1953 40.8962 27.178 43.4885C27.1736 44.2515 27.3384 45.0665 26.0335 45.0491C24.7937 45.0318 24.8371 44.3122 24.8371 43.4972C24.8327 39.9685 24.8587 36.4355 24.8197 32.9068C24.8067 31.8534 25.1145 31.2856 26.2676 31.2942C30.7326 31.3159 35.202 31.3246 39.667 31.2899C40.9459 31.2812 41.2493 31.9011 41.2103 33.0369C41.1453 34.7622 41.193 36.4919 41.1886 38.2215Z" fill="#8EB7C1" stroke="#8EB7C1" stroke-width="0.5"/>
</svg>
