<svg width="67" height="71" viewBox="0 0 67 71" fill="none" xmlns="http://www.w3.org/2000/svg">
<path d="M65.901 58.0553C65.8469 55.2456 64.0774 53.1699 61.3308 52.8818C57.8548 52.5171 54.4464 52.373 52.1771 55.9255C51.4747 57.0287 50.367 57.9112 49.3404 58.7667C48.8316 59.1899 48.4579 60.1895 47.5169 59.7077C46.765 59.325 46.9586 58.501 47.0351 57.8797C47.4088 54.7504 45.6753 53.0709 43.1133 51.8507C36.8367 48.8565 30.4926 49.1356 24.198 51.6346C22.2979 52.391 20.4563 53.5031 20.0151 55.9075C19.7719 57.2223 20.821 59.2304 19.1956 59.7122C17.8628 60.1084 17.1379 58.0508 16.0077 57.2448C15.589 56.9476 15.1883 56.5604 14.9091 56.1326C12.8379 52.9358 9.78067 52.463 6.30467 52.7872C3.08081 53.0844 1.17171 54.8134 1.07716 58.0372C0.987105 61.1846 1.00511 64.3364 1.05014 67.4837C1.06365 68.3347 0.604384 69.6539 2.22532 69.6179C3.72918 69.5864 3.45452 68.3437 3.47704 67.4387C3.55808 64.3679 3.5896 61.2971 3.59411 58.2264C3.59411 56.8576 4.22897 55.939 5.41315 55.3942C7.2322 54.5522 10.4966 55.1286 11.8158 56.6414C15.0577 60.3696 18.3941 63.7015 24.0449 62.6164C25.6208 62.3147 25.7514 63.3008 24.9364 64.5345C24.0089 65.9393 22.6176 65.6196 21.3028 65.7232C17.0343 66.0519 12.9325 66.0383 10.3075 61.7204C10.0418 61.2791 9.37543 59.9689 8.21376 61.081C7.00707 62.2382 7.87157 62.873 8.66853 63.607C10.1184 64.9442 11.3025 66.3085 11.2935 68.5598C11.289 70.1987 12.7839 69.9916 13.4773 69.1406C14.1932 68.2581 14.9271 68.2356 15.8141 68.2356C27.5839 68.2356 39.3582 68.2311 51.128 68.2401C51.988 68.2401 52.7624 68.1321 53.4108 69.1631C54.0546 70.1852 55.7071 69.708 55.608 68.5913C55.4054 66.304 56.7607 64.9982 58.1565 63.625C58.8634 62.9271 60.0341 62.3147 58.7013 61.135C57.4451 60.0274 57.0219 61.4277 56.4005 61.941C55.0272 63.0711 54.1312 65.1198 52.4652 65.4665C49.48 66.0879 46.3462 65.8537 43.2935 65.5206C42.3479 65.417 41.5194 64.512 41.6005 63.4268C41.6905 62.1796 42.8387 62.6524 43.5636 62.5623C44.3741 62.4633 45.2161 62.4633 46.0355 62.5488C48.2103 62.774 49.9168 62.1526 51.3441 60.3786C52.6003 58.8207 54.1312 57.4744 55.608 56.1101C57.3956 54.4532 59.5793 54.9034 61.547 55.4663C63.357 55.9886 63.3975 57.7311 63.3615 59.388C63.2985 62.3102 63.375 65.2369 63.33 68.1591C63.312 69.1992 63.6497 69.6584 64.7348 69.6494C65.8334 69.6404 65.91 68.9875 65.9055 68.1726C65.8965 66.3715 65.901 64.575 65.901 62.774C65.9055 61.2026 65.9325 59.6312 65.901 58.0553ZM41.551 60.0499C39.3897 59.9418 38.5973 60.5902 38.8584 62.8235C39.1871 65.6871 39.0655 65.7052 36.2019 65.7052C35.2293 65.7052 34.2523 65.7052 33.2797 65.7052C33.0546 65.7052 32.8294 65.7097 32.6043 65.7052C31.1815 65.6781 29.4795 66.1284 28.4124 65.4935C27.1201 64.7281 28.2728 62.9406 28.1512 61.5988C28.0432 60.4101 27.5929 60.0139 26.4943 60.0904C26.0485 60.1219 25.5848 60.1535 25.148 60.0769C24.216 59.9193 22.7977 60.6578 22.568 59.0909C22.3474 57.5825 22.0097 55.8355 23.6892 54.8314C28.4259 51.9993 33.5048 51.3779 38.7909 52.8998C40.2002 53.305 41.6815 53.6112 42.9197 54.5747C43.7212 55.2006 44.3696 55.7544 44.4551 56.8756C44.6938 59.8518 44.5317 60.194 41.551 60.0499Z" fill="#8EB7C1" stroke="#8EB7C1" stroke-width="0.5"/>
<path d="M16.3976 29.0093C22.9939 29.0228 29.5902 29.0363 36.1864 28.9958C37.4787 28.9868 38.4017 29.2885 39.2302 30.4096C40.5585 32.2017 42.0893 33.8541 43.6292 35.4796C44.8629 36.7853 47.2088 36.8393 48.0193 35.5966C48.6631 34.6151 48.384 33.4084 48.3975 32.2962C48.4335 29.0273 48.4155 29.0273 51.7114 29.0138C55.8042 28.9958 57.4927 27.2353 57.2181 23.2505C57.2406 23.1605 57.2541 23.0659 57.2541 22.9714L57.2541 1.66509C57.2541 1.40845 57.1775 1.16531 57.0424 0.967193C56.8308 0.57997 56.4256 0.309814 55.9483 0.309814L34.6421 0.309814C34.6376 0.309814 34.6376 0.309814 34.6331 0.309814C28.1403 0.309814 21.6701 0.314317 15.2089 0.350338C12.5028 0.363846 11.2376 1.90823 11.2151 4.96549C11.1656 11.3367 11.1565 17.7078 11.2106 24.0745C11.2376 27.6315 12.737 29.0003 16.3976 29.0093ZM13.6285 6.08214C13.6375 2.97985 13.9842 2.64666 17.181 2.64666C22.7957 2.64216 28.415 2.63315 34.0297 2.63315C34.2098 2.73671 34.4169 2.79975 34.6421 2.79975L54.7641 2.79975L54.7641 22.9714C54.7641 23.0749 54.7822 23.174 54.8047 23.2685C54.7731 23.5792 54.7776 23.9034 54.7641 24.2141C54.6966 25.7765 53.9086 26.5149 52.3372 26.4879C50.6893 26.4609 49.0368 26.5239 47.3889 26.4789C46.2227 26.4474 45.7725 26.9381 45.831 28.0863C45.8895 29.2074 45.8715 30.3331 45.8265 31.4587C45.804 32.0216 46.1237 32.796 45.4888 33.0887C44.7729 33.4174 44.5388 32.6069 44.1695 32.1792C42.9538 30.7698 41.6931 29.3966 40.5315 27.9467C39.6715 26.8706 38.6989 26.4384 37.2716 26.4519C30.5267 26.5329 23.7818 26.4924 17.0369 26.4834C14.0022 26.4789 13.6375 26.1367 13.6285 23.165C13.615 17.4737 13.6195 11.7779 13.6285 6.08214Z" fill="#8EB7C1" stroke="#8EB7C1" stroke-width="0.5"/>
<path d="M30.1021 33.2505C27.387 34.7814 26.2388 39.392 27.5536 43.3138C28.9764 47.5597 33.3889 49.1446 37.045 46.6727C39.4224 45.0653 39.7916 42.5754 39.7871 39.9639C40.0123 32.3815 33.8077 31.1613 30.1021 33.2505ZM37.0225 42.5213C36.4822 43.9757 35.5727 45.1418 33.8662 45.3399C32.1372 45.5426 30.935 44.642 30.2236 43.2462C29.152 41.13 29.1475 38.8697 30.2641 36.7715C30.9981 35.3892 32.2273 34.4752 33.9473 34.7724C35.5727 35.056 36.5903 36.1186 37.0541 37.645C37.2882 38.4195 37.2927 39.2659 37.4053 40.0899C37.2882 40.9094 37.3017 41.7694 37.0225 42.5213Z" fill="#8EB7C1" stroke="#8EB7C1" stroke-width="0.5"/>
<path d="M49.5661 39.0859C48.6026 42.6024 48.517 47.8434 51.912 49.667C52.7675 50.1262 53.5599 50.6215 54.6 50.68C58.936 50.9277 61.7547 47.9019 61.7547 42.9176C61.7547 38.5591 59.6565 35.6864 56.1805 35.2902C53.0692 34.939 50.3226 36.3213 49.5661 39.0859ZM58.4633 39.5091C59.5844 41.1526 59.4268 44.9482 58.3057 46.5962C57.3241 48.037 55.9373 48.3882 54.3704 48.0595C52.7044 47.7083 51.9705 46.3801 51.6013 44.8672C51.4437 44.2233 51.5203 43.5254 51.4888 42.787C51.5248 42.1791 51.4617 41.4812 51.6238 40.8374C52.0336 39.23 52.9476 38.0143 54.6811 37.6676C56.3876 37.3254 57.5718 38.2034 58.4633 39.5091Z" fill="#8EB7C1" stroke="#8EB7C1" stroke-width="0.5"/>
<path d="M15.4239 49.4282C17.6662 47.7667 18.0264 45.4028 17.9048 43.102C17.9048 42.5527 17.9093 42.251 17.9048 41.9539C17.8238 38.3608 16.0183 35.9159 13.033 35.3576C9.62908 34.7227 7.11213 36.1905 5.65329 39.6395C4.91937 41.373 5.15801 43.2056 5.3246 44.9481C5.81088 49.9054 11.4661 52.3548 15.4239 49.4282ZM7.96312 40.7697C8.22877 38.9416 10.0928 37.5008 11.7903 37.6044C13.911 37.7349 14.8971 39.1668 15.3924 41.0083C15.5635 41.6432 15.4779 42.3501 15.505 42.8679C15.4374 43.908 15.541 44.795 15.1222 45.6595C14.3343 47.2849 13.2627 48.2935 11.2995 48.1449C9.29589 47.9918 8.35485 46.6501 7.99014 45.0111C7.68396 43.6558 7.7605 42.161 7.96312 40.7697Z" fill="#8EB7C1" stroke="#8EB7C1" stroke-width="0.5"/>
</svg>
