<svg width="66" height="63" viewBox="0 0 66 63" fill="none" xmlns="http://www.w3.org/2000/svg">
<path d="M49.527 46.2744C51.3504 46.2744 53.1737 46.2362 54.997 46.2829C59.2669 46.3847 61.4734 48.1329 62.4461 52.2361C63.1073 55.0323 63.7936 57.8244 64.8169 60.5103C65.2464 61.6348 64.7074 61.97 63.8442 62.3773C62.484 63.018 62.703 61.8936 62.5177 61.2614C61.6587 58.3038 60.8081 55.3421 59.9828 52.3718C59.2374 49.6986 58.13 48.7354 55.355 48.693C50.8661 48.6251 46.3773 48.6378 41.8926 48.6421C41.3831 48.6421 40.6925 48.396 40.4567 49.147C40.242 49.8174 40.8652 50.1442 41.1894 50.5685C41.9137 51.5232 43.0001 51.5572 44.0571 51.5656C46.8615 51.5869 49.666 51.5656 52.4705 51.5869C53.2158 51.5911 54.0959 51.4723 54.2643 52.5755C54.3907 53.4072 54.1085 53.8697 53.1948 54.014C52.2641 54.1625 52.4873 54.8329 52.74 55.4821C53.3969 57.1752 53.9232 58.9276 54.6812 60.5697C55.2413 61.7833 54.4538 62.0251 53.7169 62.4325C52.6052 63.0477 52.6558 62.1142 52.4199 61.4947C51.6578 59.4622 50.883 57.434 50.0913 55.41C49.6028 54.1582 45.9857 53.2544 45.0845 54.1837C44.5708 54.7141 44.7982 55.3803 45.0466 55.9701C45.6951 57.5146 46.272 59.1016 47.0637 60.5697C47.7163 61.7833 46.8657 62.0294 46.1667 62.4495C45.1056 63.0902 45.0845 62.1821 44.8361 61.5541C44.0065 59.475 43.1475 57.4128 42.3095 55.3379C41.9348 54.4128 41.4294 53.6066 40.5536 53.0677C38.5618 51.8414 37.6312 49.9532 37.2269 47.7086C37.109 47.0509 36.9701 46.5756 37.6986 46.1046C38.4776 45.6039 38.1323 44.8656 37.6186 44.2928C36.8901 43.4866 36.5743 44.3055 36.1447 44.6959C34.153 46.5035 32.616 48.8839 29.7357 49.5671C28.8177 49.7835 28.683 50.9164 28.6156 51.7057C28.384 54.5274 27.2176 57.1667 27.1081 60.0054C27.0913 60.4764 26.8175 60.9389 26.6786 61.4099C26.4765 62.0761 26.2449 62.5428 25.3564 62.2628C24.51 61.9912 24.2826 61.6178 24.4763 60.7267C25.0448 58.1214 25.5459 55.4949 26.0133 52.8683C26.2491 51.5402 26.2996 50.3351 24.2952 51.2347C23.3478 51.659 22.6151 51.1159 22.3919 50.1696C22.1561 49.1725 23.0277 49.0919 23.6888 48.8967C25.4995 48.3663 27.365 47.9801 29.1041 47.2715C32.6749 45.8161 34.852 42.7058 37.1596 39.8289C37.6691 39.1925 37.7954 37.8813 37.0248 37.3255C36.2963 36.7993 35.631 37.7455 35.151 38.2972C31.8412 42.0863 27.7145 43.86 22.7035 44.2122C18.522 44.505 17.743 45.7355 17.0103 49.8769C16.3239 53.7467 15.347 57.5655 14.5511 61.4184C14.3701 62.2967 13.9195 62.3561 13.1952 62.2415C12.1299 62.0718 12.0162 61.3589 12.193 60.5315C12.6857 58.1978 13.2247 55.8767 13.7469 53.5472C13.8858 52.932 14.0416 52.3167 14.1595 51.6972C14.7322 48.71 14.728 48.7015 11.6751 49.3295C10.5129 49.5713 9.34223 49.8005 8.20107 50.123C6.31458 50.6534 5.38818 52.0621 4.99235 53.9036C4.46178 56.3774 3.92699 58.8512 3.38799 61.325C3.22798 62.0633 3.05954 62.6913 2.02365 62.2628C1.21937 61.9318 0.781431 61.7663 1.10988 60.6376C1.81311 58.219 2.25946 55.7197 2.7732 53.246C3.44273 50.0169 5.44292 48.1414 8.71902 47.5855C10.6476 47.2588 12.5467 46.7623 14.4711 46.3847C15.1659 46.2489 15.5533 45.8501 15.8944 45.273C16.8798 43.5969 18.3873 42.6634 20.2738 42.3409C22.4803 41.9675 24.6489 41.4032 26.8849 41.1443C30.0852 40.7752 31.7696 38.1105 33.7656 36.0143C34.3635 35.3863 33.7108 34.4995 33.4329 33.8333C31.7191 29.7089 29.9084 25.6227 28.1777 21.5026C27.7397 20.4545 27.2808 20.1235 26.1185 20.6327C20.6191 23.0386 15.0649 25.3172 9.56541 27.7273C8.32319 28.2705 7.95684 28.2535 8.20949 26.7684C8.54637 24.7571 8.23476 22.6779 8.8664 20.6794C9.18643 19.6653 8.53795 18.9609 7.76735 18.3626C6.21773 17.166 4.74812 15.8549 3.13955 14.7516C1.93522 13.9284 1.8089 13.5932 3.28693 12.9737C8.63059 10.7333 13.9027 8.31894 19.2589 6.11671C21.0402 5.38264 21.3055 4.48732 20.3075 2.98523C19.8106 2.23843 19.3474 1.5086 20.5012 0.910306C21.2549 0.519931 21.7434 0.269582 22.215 1.43646C24.232 6.42222 26.3965 11.3486 28.5061 16.2962C30.7632 21.6256 33.016 26.9678 35.3152 32.2888C35.6479 33.061 35.9637 34.2025 37.2438 33.2223C37.8165 32.7852 38.2249 33.2987 38.4186 33.689C39.4335 35.7258 40.3767 37.8898 39.6272 40.1599C38.8355 42.5616 40.3725 44.1146 41.2357 45.9222C41.4968 46.4738 42.259 46.2319 42.798 46.2404C45.0424 46.2616 47.2868 46.2489 49.5312 46.2489C49.527 46.2574 49.527 46.2659 49.527 46.2744ZM10.7697 23.2635C10.6224 24.1376 11.0182 24.5831 12.433 23.9466C16.5597 22.0839 20.6864 20.2041 24.8889 18.5281C26.3249 17.9552 26.3249 17.1575 25.8954 16.101C24.9016 13.6399 23.8362 11.2128 22.7793 8.78144C22.3708 7.8437 21.8276 7.49151 20.7117 7.99645C16.7787 9.77435 12.791 11.425 8.8285 13.135C8.15896 13.4235 7.16519 13.4108 7.0557 14.3485C6.95885 15.1802 7.81367 15.4984 8.39056 15.8209C10.9466 17.2424 11.953 19.2409 10.9129 22.1093C10.8455 22.3003 10.8582 22.5252 10.7697 23.2635Z" fill="#8EB7C1" stroke="#8EB7C1" stroke-width="0.5"/>
<path d="M27.7529 34.4059C27.7318 37.7877 25.2642 40.2488 21.9081 40.2445C18.5857 40.2403 15.9244 37.5628 15.9454 34.2404C15.9623 30.9562 18.6783 28.389 22.0765 28.44C25.3821 28.4866 27.7739 31.0028 27.7529 34.4059ZM22.0134 30.8331C19.9416 30.7907 18.3625 32.2843 18.3457 34.3041C18.3246 36.2474 19.9963 37.9659 21.9207 37.9872C23.6388 38.0041 25.3989 36.2856 25.4832 34.4992C25.58 32.454 24.0851 30.8756 22.0134 30.8331Z" fill="#8EB7C1" stroke="#8EB7C1" stroke-width="0.5"/>
<path d="M52.6398 44.2933C49.1616 44.3314 46.8035 42.0274 46.7614 38.5565C46.715 35.1449 49.3005 32.4081 52.5682 32.4038C55.6548 32.3996 58.6404 35.4165 58.6235 38.5183C58.6025 41.6667 55.9201 44.2593 52.6398 44.2933ZM52.5135 34.797C50.6186 34.8224 48.9889 36.5961 49.0521 38.5692C49.1111 40.4447 50.7449 42.0825 52.5556 42.0825C54.3831 42.0825 56.2359 40.224 56.2107 38.4079C56.1812 36.5664 54.3494 34.7758 52.5135 34.797Z" fill="#8EB7C1" stroke="#8EB7C1" stroke-width="0.5"/>
<path d="M8.25984 45.6816C4.89952 45.6562 2.41508 43.1951 2.38981 39.8684C2.36455 36.6436 5.22376 33.7116 8.35248 33.7582C11.4222 33.8007 14.2099 36.6351 14.2436 39.7496C14.2857 43.123 11.6749 45.7113 8.25984 45.6816ZM8.31458 43.4412C10.1716 43.4327 11.9823 41.5869 11.9318 39.7496C11.8812 37.9038 9.99474 36.0708 8.20088 36.1302C6.49967 36.1853 4.7353 38.0142 4.6974 39.7624C4.65529 41.6251 6.44914 43.4497 8.31458 43.4412Z" fill="#8EB7C1" stroke="#8EB7C1" stroke-width="0.5"/>
</svg>
