<svg width="63" height="57" viewBox="0 0 63 57" fill="none" xmlns="http://www.w3.org/2000/svg">
<path d="M1.02346 29.4934C1.02346 26.8467 0.987697 24.2001 1.03538 21.5574C1.09897 17.9173 2.8952 16.3555 6.53932 15.97C10.5689 15.5448 13.5375 17.4126 16.3192 19.8407C17.6346 20.9931 19.0573 21.5654 20.786 21.6091C21.9026 21.6369 26.4647 22.3085 27.1363 22.5509C27.8874 22.8172 27.6371 23.5364 27.6132 24.1007C27.5258 26.2308 25.3481 28.6946 23.1584 28.6191C19.8521 28.5079 16.4385 29.4298 13.2434 27.7965C12.4764 27.4031 12.1505 27.8482 12.1505 28.6112C12.1505 30.3955 12.1625 32.1838 12.1386 33.9681C12.1267 35.0132 12.691 35.355 13.6368 35.347C14.8926 35.3351 16.1523 35.3391 17.4081 35.3709C20.4998 35.4424 22.8643 37.1194 23.8419 40.0204C25.4156 44.6938 26.9059 49.395 28.5034 54.0604C28.8531 55.0778 28.404 55.2923 27.6251 55.5944C26.7111 55.9481 26.5482 55.5348 26.3018 54.7757C24.7957 50.1461 23.2141 45.5442 21.6841 40.9265C20.9727 38.7845 19.403 37.5486 17.1617 37.5129C15.5085 37.485 13.8474 37.4215 12.2022 37.5407C10.4576 37.6678 9.6708 37.2029 9.81783 35.2556C9.99666 32.8872 9.77412 30.4909 9.88937 28.1184C9.9609 26.652 9.54363 25.6426 8.10506 25.2651C6.96851 24.9671 7.02414 24.3312 7.39769 23.4927C7.87059 22.4317 8.49451 22.9046 9.14226 23.2861C13.0844 25.5989 17.2253 27.0574 21.9026 26.3103C22.5504 26.2069 23.2419 26.3262 23.8101 25.9168C24.1678 25.6625 24.6963 25.428 24.5573 24.8876C24.446 24.4544 23.9294 24.3749 23.5558 24.3908C18.5923 24.5697 14.9085 21.7879 11.2206 19.0379C9.35686 17.647 7.2904 18.0762 5.31534 18.422C3.83703 18.6803 3.22901 20.0076 3.21709 21.4223C3.17337 26.8467 3.078 32.2712 3.24888 37.6917C3.3522 41.0417 5.72863 43.0247 9.13829 43.0684C11.2564 43.0923 13.3745 43.144 15.4887 43.0486C16.5736 43.0009 17.1935 43.3307 17.6187 44.3282C18.954 47.4756 20.325 50.607 21.7318 53.7226C22.1093 54.5611 22.2484 55.1095 21.231 55.6301C19.8998 56.3137 19.8918 55.0817 19.6454 54.5532C18.4374 51.9979 17.3326 49.395 16.2278 46.792C15.7669 45.7032 15.0992 45.2064 13.8355 45.3137C12.2578 45.4449 10.6643 45.3574 9.0747 45.3416C4.31787 45.2939 1.15858 42.214 1.03936 37.4294C0.963853 34.7867 1.01949 32.1401 1.02346 29.4934Z" fill="#8EB7C1" stroke="#8EB7C1" stroke-width="0.5"/>
<path d="M62.2017 29.7678C62.2017 32.5456 62.1501 35.3234 62.2137 38.1012C62.3051 42.0831 58.5298 45.2225 54.7585 45.3338C53.1729 45.3815 51.5635 45.5047 50.0017 45.306C48.0703 45.0596 47.3153 46.0611 46.6874 47.6188C45.682 50.1145 44.5534 52.5585 43.4168 54.9985C43.238 55.384 43.2301 56.3417 42.2564 55.7297C41.6087 55.3243 40.9689 55.066 41.41 54.0884C42.928 50.7344 44.4222 47.3725 45.8807 43.9906C46.2423 43.1521 46.8344 43.0488 47.6133 43.0607C49.8626 43.0885 52.1119 43.1005 54.3611 43.0607C57.6277 43.0051 59.8054 41.1254 59.8969 37.8866C60.0558 32.335 60.024 26.7794 59.9565 21.2278C59.9326 19.1772 58.8716 18.4381 56.825 18.1559C53.7014 17.7267 51.2694 19.0659 49.1552 21.045C47.061 23.0041 44.6766 23.946 41.863 23.9698C41.6007 23.9738 41.3226 23.9658 41.0722 24.0334C40.1661 24.2758 38.5328 23.9698 38.5607 24.9554C38.5924 26.076 40.0628 26.2628 41.259 26.386C45.8211 26.8549 50.0176 25.929 53.8683 23.4254C54.5996 22.9485 55.3506 22.3683 55.9745 23.5804C56.5865 24.7646 55.7679 25.0626 54.9095 25.3806C53.6975 25.8256 53.2365 26.6959 53.2683 27.9954C53.3319 30.6381 53.2444 33.2887 53.2961 35.9314C53.3199 37.1276 52.9027 37.5727 51.6827 37.521C49.8348 37.4376 47.9789 37.5011 46.1271 37.5051C43.9533 37.5091 42.4989 38.598 41.8034 40.5969C40.2059 45.1987 38.656 49.8204 37.13 54.4461C36.8638 55.2488 36.836 55.9721 35.6001 55.5628C34.4039 55.1654 34.69 54.4382 34.9324 53.699C36.4584 49.0693 38.0003 44.4476 39.5661 39.8299C40.5039 37.064 42.7214 35.4625 45.686 35.3711C47.0093 35.3314 48.3326 35.3274 49.656 35.3512C50.6653 35.3671 51.1025 34.8942 51.0985 33.9127C51.0866 32.1919 51.1065 30.4752 51.0906 28.7545C51.0826 27.7967 50.7846 27.5027 49.7513 27.9438C46.4609 29.3506 42.9837 28.6909 39.6257 28.4246C37.3248 28.2418 35.9895 26.1952 35.755 24.0493C35.6319 22.9088 36.0491 22.5034 37.1221 22.4001C38.1712 22.2968 39.2203 21.8199 40.2377 21.8994C44.3229 22.2213 47.1325 19.7972 50.0613 17.5797C52.9384 15.398 56.1653 15.6523 59.3286 16.5544C61.0692 17.0511 62.1342 18.5175 62.162 20.4489C62.2057 23.5565 62.1739 26.6642 62.1739 29.7718C62.1858 29.7678 62.1938 29.7678 62.2017 29.7678Z" fill="#8EB7C1" stroke="#8EB7C1" stroke-width="0.5"/>
<path d="M31.7434 30.0702C35.773 30.0702 39.8066 30.0702 43.8362 30.0702C44.6985 30.0702 45.5688 29.9192 45.5609 31.2942C45.5529 32.6414 44.6429 32.3274 43.9196 32.3354C40.9471 32.3632 37.9666 32.4466 34.9981 32.3195C33.2694 32.244 32.6972 32.7725 32.721 34.533C32.8124 40.8754 32.7647 47.2218 32.7488 53.5643C32.7488 54.1365 32.9912 54.8399 32.5024 55.2492C32.2044 55.4996 31.6202 55.5353 31.195 55.4718C30.281 55.3406 30.6307 54.5538 30.6267 54.0372C30.6029 47.6947 30.6148 41.3483 30.6069 35.0059C30.6029 32.3473 30.5989 32.3433 28.0278 32.3433C25.0552 32.3393 22.0787 32.3393 19.1062 32.3473C18.3432 32.3513 17.6597 32.395 17.6915 31.2624C17.7193 30.2689 18.1843 30.0464 19.0506 30.0503C23.2789 30.0702 27.5112 30.0583 31.7394 30.0583C31.7434 30.0623 31.7434 30.0662 31.7434 30.0702Z" fill="#8EB7C1" stroke="#8EB7C1" stroke-width="0.5"/>
<path d="M4.93723 7.45374C4.55971 3.31287 7.80643 0.634426 11.1803 0.678139C14.9437 0.729801 17.336 3.42812 17.3161 7.6127C17.2962 11.7099 14.7728 14.4479 11.0412 14.4161C7.33353 14.3843 4.92929 11.6423 4.93723 7.45374ZM7.20637 7.49745C7.19842 10.4064 8.63699 12.1271 11.0929 12.147C13.4375 12.1669 15.1503 10.2395 15.1622 7.56501C15.1742 4.93028 13.4296 2.87574 11.1565 2.8519C8.87145 2.82805 7.21431 4.77529 7.20637 7.49745Z" fill="#8EB7C1" stroke="#8EB7C1" stroke-width="0.5"/>
<path d="M58.48 7.50495C58.9013 11.5028 55.13 14.5468 52.2528 14.4475C48.4776 14.3163 46.0376 11.7571 46.0177 7.58443C45.9978 3.37998 48.3862 0.713456 52.1932 0.681664C55.889 0.649872 58.4761 3.45549 58.48 7.50495ZM56.2149 7.53277C56.2149 4.86227 54.4981 2.85542 52.2171 2.86734C49.8963 2.87529 48.1994 4.83843 48.1915 7.52482C48.1835 10.2748 49.8009 12.1386 52.1932 12.1426C54.5498 12.1465 56.2149 10.239 56.2149 7.53277Z" fill="#8EB7C1" stroke="#8EB7C1" stroke-width="0.5"/>
</svg>
