<svg width="32" height="33" viewBox="0 0 32 33" fill="none" xmlns="http://www.w3.org/2000/svg">
<path d="M1.44157 30.6885C1.67503 30.6593 1.92146 30.6446 2.15491 30.6739C2.73856 30.747 2.93311 30.5277 2.93311 29.8404C2.8942 26.9598 2.93311 24.0938 2.90717 21.2132C2.90717 20.5406 3.10172 20.2774 3.69834 20.3359C4.15228 20.3797 4.60623 20.3505 5.06017 20.3359C6.26638 20.3066 6.17559 20.5844 6.17559 19.1076C6.17559 15.7883 6.17559 12.4836 6.17559 9.16437C6.17559 8.72569 6.22747 8.34551 6.55172 8.06769C9.17164 5.85971 11.8045 3.6371 14.4244 1.4145C14.6838 1.19517 14.9173 0.858851 15.2675 1.06356C15.6047 1.26828 15.5269 1.69233 15.5269 2.05789C15.5269 5.17245 15.5269 11.3285 15.5269 15.7737C15.5658 15.6567 15.5917 15.5251 15.5917 15.3935C15.5917 15.0718 15.7344 15.0572 15.9549 15.0426C17.1741 14.9402 17.1741 14.9256 17.1741 13.5657C17.1741 13.4926 17.1741 13.4195 17.1741 13.3464C17.1222 12.703 17.3427 12.4252 17.9523 12.4398C19.0288 12.4836 20.1182 12.4544 21.1947 12.4544C22.3102 12.4544 22.3361 12.4836 22.3361 13.7119C22.3361 15.0426 22.3361 15.0426 23.4774 15.0426C24.4113 15.0426 24.4113 15.0426 24.4243 16.0954C24.4243 18.3911 24.4372 20.6722 24.4243 22.9679C24.4243 23.5089 24.554 23.7721 25.0857 23.7575C25.9547 23.7283 26.8107 23.7721 27.6797 23.7868C28.4968 23.8014 28.5746 23.8891 28.5746 24.7957C28.5746 26.5504 28.5876 28.3051 28.5617 30.0598C28.5617 30.5277 28.6784 30.7324 29.1194 30.6885C29.5085 30.6593 29.8976 30.6885 30.2867 30.6885C30.559 30.6885 30.7536 30.864 30.7406 31.1711C30.7276 31.4781 30.585 31.7267 30.2477 31.6975C30.118 31.6828 29.9883 31.6975 29.8586 31.6975C20.5462 31.6975 11.2209 31.6975 1.90849 31.6975C1.75285 31.6975 1.61018 31.7121 1.45454 31.6975C1.18217 31.6682 1.01356 31.5074 1.00059 31.1857C0.987623 30.8494 1.19514 30.7324 1.44157 30.6885ZM24.4243 27.7494C24.4243 28.5244 24.4372 29.2994 24.4243 30.0744C24.4113 30.513 24.5669 30.6885 24.956 30.6739C25.6694 30.6593 26.3827 30.6593 27.0831 30.6739C27.4722 30.6885 27.6149 30.4984 27.6149 30.0598C27.6019 28.5098 27.6019 26.9452 27.6149 25.3952C27.6149 24.8981 27.4592 24.6933 27.0053 24.7226C26.3438 24.7518 25.6694 24.7372 25.0079 24.708C24.5929 24.6787 24.4243 24.8688 24.4243 25.3367C24.4372 26.1556 24.4243 26.9452 24.4243 27.7494ZM16.2921 30.7031C17.3686 30.6593 18.4581 30.6885 19.5346 30.6885C20.663 30.6885 21.7784 30.6593 22.9068 30.7031C23.4385 30.7178 23.5942 30.4984 23.5553 29.9428C23.5164 29.4602 23.5164 28.9631 23.5553 28.4805C23.6201 27.8372 23.3607 27.6909 22.8419 27.7202C22.2194 27.764 21.5838 27.7348 20.9613 27.7348C20.5981 27.7348 20.2739 27.6324 20.2868 27.1499C20.2868 26.682 20.637 26.6674 20.9483 26.6674C21.6228 26.6674 22.2842 26.6527 22.9587 26.6674C23.4126 26.682 23.5942 26.4773 23.5423 25.9801C23.5293 25.79 23.5293 25.5853 23.5423 25.3952C23.5942 24.8834 23.3867 24.708 22.9457 24.7372C22.2583 24.7665 21.5579 24.7372 20.8705 24.7518C20.5592 24.7518 20.2869 24.6933 20.2739 24.2693C20.2609 23.8306 20.5462 23.7721 20.8446 23.7575C21.4931 23.7429 22.1415 23.7136 22.79 23.7575C23.3996 23.8014 23.6201 23.5235 23.5293 22.8655C23.5164 22.7486 23.5164 22.617 23.5293 22.5C23.6071 21.9297 23.3477 21.7835 22.8938 21.8127C22.2712 21.842 21.6357 21.8274 21.0132 21.8127C20.663 21.8127 20.2479 21.8566 20.2739 21.2717C20.2869 20.7745 20.65 20.7745 20.9872 20.7745C21.6617 20.7892 22.3231 20.7599 22.9976 20.7892C23.3737 20.8038 23.5423 20.7014 23.5293 20.2189C23.5034 18.7274 23.659 18.9614 22.4528 18.9321C21.96 18.9175 21.4541 18.9321 20.9613 18.9321C20.5852 18.9321 20.2869 18.7859 20.2739 18.3472C20.2609 17.8793 20.6241 17.8647 20.9353 17.8647C21.6098 17.8647 22.2712 17.8501 22.9457 17.8647C23.3477 17.8793 23.5293 17.7331 23.5293 17.2359C23.5423 16.0223 23.5682 16.0223 22.5047 16.0223C21.3634 16.0223 21.3634 16.0223 21.3634 14.7209C21.3634 14.6039 21.3504 14.4723 21.3634 14.3553C21.4541 13.6681 21.2207 13.3902 20.5722 13.4341C19.9107 13.4926 19.2363 13.4633 18.5619 13.4487C18.1598 13.4341 18.0171 13.6096 18.056 14.0482C18.082 14.2676 18.056 14.4869 18.056 14.7063C18.056 15.9784 17.7707 16.227 16.6164 15.9345C16.0716 15.8029 15.7604 15.8322 15.501 16.1392C15.501 16.9727 15.501 17.7477 15.501 18.4057C15.501 18.5227 15.501 18.6543 15.501 18.7713C15.501 18.8736 15.501 18.976 15.501 19.0783C15.5139 19.1953 15.5139 19.3269 15.501 19.4439C15.501 22.8948 15.5139 26.3457 15.488 29.8112C15.5139 30.5277 15.7085 30.7178 16.2921 30.7031ZM7.82277 30.7031C9.85904 30.6739 11.8823 30.6739 13.9186 30.7031C14.4893 30.7178 14.6449 30.5277 14.6449 29.8843C14.619 26.1702 14.632 22.4561 14.632 18.7274C14.619 18.6104 14.619 18.4788 14.619 18.3472C14.6579 14.9841 14.6449 6.66394 14.632 3.30079C14.632 3.12532 14.7357 2.89136 14.5023 2.78901C14.3726 2.73052 14.2688 2.87674 14.1651 2.96447C11.9602 4.85076 9.75528 6.73705 7.5504 8.59409C7.22615 8.87192 7.08348 9.16437 7.08348 9.63228C7.09645 16.3878 7.09645 23.1287 7.08348 29.8843C7.05754 30.5423 7.26506 30.7031 7.82277 30.7031ZM4.41168 30.6885C6.18856 30.7031 6.18856 30.7324 6.18856 28.6999C6.18856 26.5504 6.16262 24.4155 6.20153 22.266C6.2145 21.5934 6.07183 21.3156 5.41036 21.3448C3.80209 21.3887 3.80209 21.3594 3.80209 23.1434C3.80209 24.1231 3.80209 25.0881 3.80209 26.0678C3.80209 27.3546 3.81506 28.656 3.80209 29.9428C3.78912 30.4692 3.90585 30.6885 4.41168 30.6885Z" fill="#8EB7C1" stroke="#8EB7C1" stroke-width="0.75"/>
</svg>
