<svg width="80" height="78" viewBox="0 0 80 78" fill="none" xmlns="http://www.w3.org/2000/svg">
<path opacity="0.7" d="M39.9851 0.108028C52.2357 0.108028 64.4864 0.103918 76.737 0.108028C79.8151 0.108028 80 0.305287 80 3.33404C80 20.7134 80 38.0887 80 55.4681C80 58.2091 79.5027 58.7393 76.8233 58.7475C70.8028 58.7598 64.7781 58.7516 58.7576 58.7475C58.4165 58.7475 58.0549 58.8091 57.7343 58.7228C56.5754 58.4105 55.3467 57.9667 55.5316 56.5037C55.6919 55.2503 56.6412 54.5886 57.9768 54.5927C63.385 54.6009 68.7891 54.5557 74.1973 54.6256C75.6973 54.6461 76.285 54.3503 76.2767 52.6407C76.2028 37.0407 76.2069 21.4449 76.2685 5.84499C76.2726 4.29979 75.8411 3.88061 74.337 3.88472C51.5453 3.92171 28.7536 3.92582 5.96607 3.8765C4.42087 3.87239 4.00581 4.31212 4.01402 5.83266C4.06334 21.5025 4.06334 37.1681 4.00991 52.8338C4.00581 54.3297 4.53594 54.6379 5.90443 54.6215C11.1729 54.5557 16.4414 54.6133 21.7139 54.5804C23.1646 54.5722 24.4098 54.9544 24.4879 56.5448C24.5783 58.3612 23.1482 58.7311 21.6852 58.7352C15.4592 58.7557 9.22907 58.7598 3.00307 58.7311C0.734586 58.7228 0.00308218 57.9215 0.00308218 55.5872C-0.00102739 38.0805 -0.00102739 20.5696 0.00308218 3.05459C0.00308218 0.523095 0.40582 0.116247 3.03184 0.116247C15.3482 0.103918 27.6687 0.108028 39.9851 0.108028Z" fill="#272F3A"/>
<path d="M39.9849 6.35865C48.1958 6.35865 56.4067 6.38331 64.6176 6.3381C66.4916 6.32988 67.5847 6.88057 67.6998 8.95179C67.8108 10.9449 69.2286 11.9847 71.0244 12.2847C72.9107 12.6011 73.4285 13.5792 73.4162 15.3751C73.3546 24.7449 73.3505 34.1188 73.4203 43.4886C73.4326 45.3585 72.6929 46.2667 70.9217 46.5462C68.9368 46.8585 67.7614 47.9722 67.6381 50.0557C67.5518 51.4776 66.7546 52.1187 65.3656 52.1187C63.3108 52.1146 61.2601 52.09 59.2094 52.1269C57.8533 52.1516 57.0889 51.5228 57.1505 50.1996C57.2081 48.9626 57.919 48.2146 59.2711 48.2722C59.6122 48.2886 59.9615 48.2187 60.2943 48.2722C62.4231 48.6009 64.0423 48.1859 64.9012 45.8763C65.3697 44.6147 66.5203 43.7311 67.8313 43.2503C69.056 42.8023 69.3724 41.9722 69.3642 40.7229C69.3107 33.0626 69.319 25.3983 69.3436 17.7381C69.3477 16.7518 69.1423 16.1723 68.1354 15.6874C66.1382 14.7257 64.5724 13.2175 63.993 10.9778C63.7587 10.0778 63.1505 10.2216 62.5752 10.2216C47.6574 10.2134 32.7397 10.2175 17.8219 10.2052C17.0123 10.2052 16.2891 10.2751 16.0343 11.1874C15.4466 13.2997 13.9548 14.6723 12.1055 15.5723C10.9589 16.1271 10.7494 16.8463 10.7494 17.9641C10.7658 25.6942 10.7411 33.4243 10.7083 41.1544C10.7042 42.0585 10.8768 42.6708 11.8672 43.0284C13.8644 43.7516 15.2781 45.1941 15.9603 47.2078C16.2808 48.153 16.9014 48.2557 17.6863 48.264C18.8493 48.2763 20.0123 48.2557 21.1753 48.305C22.4411 48.3585 23.0247 49.2872 23.0288 50.327C23.0329 51.3297 22.3548 52.0982 21.1836 52.1023C18.9274 52.1105 16.6671 52.1269 14.411 52.0941C13.0302 52.0735 12.5288 51.1119 12.4302 49.9365C12.2494 47.8283 11.0863 46.8092 9.06033 46.5133C7.42472 46.2749 6.59047 45.3585 6.59869 43.5914C6.63568 34.0818 6.62746 24.5723 6.6028 15.0668C6.59869 13.423 7.27266 12.5723 8.92471 12.334C10.8685 12.0504 12.2 10.9984 12.3768 8.89837C12.5329 7.04084 13.5028 6.35043 15.3521 6.36276C23.563 6.42029 31.7739 6.38742 39.9849 6.38742C39.9849 6.3792 39.9849 6.37098 39.9849 6.35865Z" fill="#8EB7C1"/>
<path opacity="0.7" d="M39.9269 35.4915C40.7118 35.6723 41.3858 35.6723 41.8831 35.9723C43.194 36.7654 44.5707 37.0079 46.0748 36.975C46.6584 36.9627 47.505 37.1024 47.7926 37.4928C49.42 39.6832 52.0255 41.0887 53.2501 43.427C54.4214 45.6668 55.1693 48.3873 55.1816 50.8982C55.194 53.3434 54.672 56.29 53.2378 58.1146C51.3227 60.5557 49.5926 63.7242 46.157 64.4804C44.4433 64.8543 42.7748 65.2037 41.2091 65.9968C40.9707 66.116 40.6173 66.2968 40.4406 66.2064C37.0749 64.4804 32.2913 65.7995 30.1584 61.4557C29.9242 60.979 29.6324 60.7571 29.168 60.5475C27.0228 59.5818 26.0242 57.8188 26.1064 55.5338C26.1352 54.7201 25.905 54.079 25.5886 53.4092C25.3585 52.9201 24.9845 52.4804 24.8242 51.9749C24.2324 50.0928 26.6324 42.8887 28.2763 41.6805C29.3448 40.8955 30.4461 40.2503 30.9064 38.8325C31.1036 38.2367 31.9091 37.5421 32.5338 37.4312C35.094 36.9627 37.5803 36.2312 39.9269 35.4915ZM30.7132 47.2284C30.8982 48.7777 30.3968 49.238 29.5667 49.6777C28.4735 50.253 28.3502 51.2517 29.5009 51.8475C31.0584 52.653 31.0995 53.8078 30.4708 55.0859C29.7968 56.4585 30.1132 57.0379 31.6091 56.9681C33.1913 56.8941 33.816 57.716 33.8242 59.1914C33.8324 60.7982 34.6379 61.0694 35.9612 60.4366C37.1858 59.8489 38.2132 60.0379 38.9529 61.2338C39.6516 62.3639 40.4776 62.4133 41.1639 61.3366C41.9858 60.0461 42.9474 59.8119 44.2707 60.4612C45.4748 61.0489 46.2556 60.827 46.2762 59.2982C46.2926 57.7694 46.9132 56.8694 48.6186 56.9722C49.9789 57.0503 50.4186 56.3516 49.7159 55.1845C48.82 53.6886 49.1447 52.616 50.6447 51.8434C52.0173 51.1366 51.631 50.2654 50.6529 49.7476C49.0625 48.901 48.8652 47.9147 49.7241 46.427C50.3036 45.4202 49.9296 44.5983 48.7214 44.6517C46.9173 44.7298 46.2598 43.8668 46.2762 42.2188C46.2885 40.7353 45.2652 40.501 44.4022 41.1586C42.9269 42.2805 42.0474 41.7051 41.2666 40.4846C40.4447 39.2024 39.7954 38.9969 38.9406 40.4723C38.2543 41.6517 37.3091 42.2065 35.9118 41.2983C34.6584 40.4846 33.8488 40.8134 33.8324 42.4407C33.8201 43.6654 33.4091 44.6394 31.9913 44.6229C30.2283 44.6024 29.6571 45.19 30.6228 46.8298C30.7749 47.0969 30.7626 47.475 30.7132 47.2284Z" fill="#272F3A"/>
<path opacity="0.7" d="M40.0833 19.7724C33.7997 19.7724 27.5121 19.7765 21.2285 19.7642C20.5505 19.7642 19.86 19.7313 19.1984 19.5957C18.3231 19.4149 18.0107 18.593 18.0107 17.9025C18.0107 17.2286 18.2162 16.3656 19.1203 16.1765C19.7779 16.0368 20.4642 15.9505 21.134 15.9505C33.7751 15.9382 46.412 15.9382 59.053 15.9423C59.5297 15.9423 60.0106 15.9341 60.4832 15.9875C61.6215 16.1149 62.2092 16.8176 62.164 17.919C62.1229 18.9998 61.4941 19.6943 60.3722 19.7395C59.1434 19.7929 57.9147 19.7683 56.6859 19.7683C51.1544 19.7724 45.6188 19.7724 40.0833 19.7724Z" fill="#272F3A"/>
<path d="M33.8575 72.7118C35.4849 71.9474 36.7876 71.3967 38.0287 70.7351C39.5575 69.9214 40.9712 70.1228 42.4506 70.883C46.4163 72.9214 46.4163 72.9008 46.4698 68.4009C46.478 67.657 46.552 66.8968 46.7205 66.1776C46.9752 65.0927 47.8958 64.8831 48.804 65.0064C49.6177 65.1173 50.4314 65.479 50.4396 66.5228C50.4602 69.7365 50.5917 72.9543 50.3985 76.1556C50.2999 77.7953 48.9109 78.2022 47.4766 77.6803C46.0177 77.146 44.5424 76.5584 43.2314 75.7406C41.0123 74.3597 38.978 74.4954 36.8041 75.8104C35.5424 76.5707 34.1493 77.1501 32.7561 77.6474C30.9849 78.2803 29.7027 77.4584 29.6411 75.6173C29.5507 72.8187 29.5959 70.0118 29.6287 67.2091C29.6452 65.8488 30.4013 64.9324 31.7534 64.9488C33.0767 64.9612 33.8616 65.8036 33.8616 67.2132C33.8575 68.9146 33.8575 70.6159 33.8575 72.7118Z" fill="#8EB7C1"/>
<path opacity="0.7" d="M40.1945 31.2215C33.7712 31.2215 27.3439 31.2133 20.9206 31.2297C19.4782 31.2339 17.9658 31.2092 18.0439 29.2736C18.1138 27.6298 19.3713 27.375 20.8466 27.3791C33.6973 27.4202 46.5479 27.412 59.3944 27.3873C60.9273 27.3832 62.2054 27.6339 62.1561 29.4791C62.115 31.0119 60.9478 31.2339 59.6739 31.2297C53.1808 31.2174 46.6876 31.2256 40.1945 31.2215Z" fill="#272F3A"/>
<path opacity="0.7" d="M58.4857 38.6435C58.6912 38.6435 58.8925 38.6476 59.098 38.6394C60.6596 38.5737 62.1391 38.9271 62.1596 40.7558C62.1802 42.6462 60.6555 42.9051 59.1021 42.8517C58.3542 42.8271 57.6062 42.8928 56.8624 42.8394C55.5679 42.7449 54.5446 42.0545 54.5323 40.7558C54.5241 39.4408 55.6008 38.8079 56.8542 38.6558C57.3925 38.5901 57.9432 38.6435 58.4857 38.6435Z" fill="#272F3A"/>
<path opacity="0.7" d="M21.6687 42.8516C21.3974 42.8516 21.1262 42.8392 20.855 42.8557C19.3016 42.9461 17.9988 42.3338 18.0029 40.7351C18.007 39.1119 19.355 38.5776 20.892 38.6393C21.7714 38.6762 22.6755 38.5447 23.5344 38.6886C24.6646 38.8776 25.6385 39.5105 25.6303 40.7803C25.6221 42.0502 24.6358 42.6214 23.5015 42.8187C22.9098 42.9214 22.2851 42.8351 21.6728 42.8351C21.6687 42.8433 21.6687 42.8475 21.6687 42.8516Z" fill="#272F3A"/>
<path d="M46.7778 50.8242C47.3161 54.4037 43.297 57.8064 40.1655 57.7776C36.3723 57.7447 33.1586 54.4201 33.1956 50.816C33.2367 47.0516 36.2984 44.1791 40.1778 44.101C43.8641 44.0229 47.3038 47.6475 46.7778 50.8242ZM40.0956 53.5407C41.4641 53.5201 42.9065 52.1434 42.9024 50.8612C42.8983 49.4927 41.3285 48.0297 39.9353 48.0996C38.5134 48.1694 37.2847 49.4886 37.3216 50.9105C37.3586 52.3776 38.6079 53.5612 40.0956 53.5407Z" fill="#8EB7C1"/>
</svg>
