<svg width="32" height="30" viewBox="0 0 32 30" fill="none" xmlns="http://www.w3.org/2000/svg">
<path d="M30.9771 11.814C30.977 11.7679 30.967 11.6983 30.9494 11.6583C30.9033 11.4876 30.8008 11.3316 30.6474 11.2227L26.353 8.17523V4.90832C26.353 4.47525 26.0089 4.12401 25.5847 4.12401H20.6441L16.4404 1.1405C16.1777 0.953816 15.8289 0.953038 15.5654 1.13895L11.3345 4.12401H6.41559C5.99125 4.12401 5.64731 4.47525 5.64731 4.90832V8.13677L1.33199 11.1815C1.11971 11.3313 1.00486 11.5707 1.00123 11.8155C1.001 11.8201 1 11.8245 1 11.8293L1.02291 28.8311C1.0232 29.0391 1.10441 29.2385 1.24861 29.3854C1.39264 29.532 1.58775 29.6143 1.79119 29.6143C1.7916 29.6143 1.79189 29.6143 1.79225 29.6143L30.2328 29.5744C30.657 29.5738 31.0006 29.2221 31 28.789L30.9771 11.814ZM26.3529 10.0857L28.8079 11.8274L26.3529 13.5697V10.0857ZM16.0009 2.73885L17.9526 4.12395H14.0379L16.0009 2.73885ZM7.18387 5.69263H24.8164V14.6603L18.8963 18.8619L16.4826 16.9506C16.4788 16.9476 16.4756 16.9457 16.472 16.943C16.2022 16.7364 15.8206 16.7288 15.5407 16.9506L13.1095 18.8757L7.18387 14.695V5.69263ZM5.64731 10.0435V13.611L3.11922 11.8273L5.64731 10.0435ZM2.53855 13.3253L11.8356 19.8844L2.5573 27.2313L2.53855 13.3253ZM4.03955 28.0426L16.0117 18.5627L27.9408 28.009L4.03955 28.0426ZM20.1686 19.8694L29.4426 13.2875L29.4613 27.2282L20.1686 19.8694Z" fill="#8EB7C1" stroke="#8EB7C1" stroke-width="0.5"/>
</svg>
