<svg width="9" height="16" viewBox="0 0 9 16" fill="none" xmlns="http://www.w3.org/2000/svg">
<path d="M8.65992 0.00583516L6.50405 0C4.08097 0 2.5081 1.54632 2.5081 3.93873L2.5081 5.75346H0.340081C0.151822 5.75346 0 5.89934 0 6.08023L0 8.71189C0 8.89278 0.151822 9.03866 0.340081 9.03866H2.51417L2.51417 15.6732C2.51417 15.8541 2.66599 16 2.85425 16H5.68421C5.87247 16 6.02429 15.8541 6.02429 15.6732L6.02429 9.03282H8.56275C8.75101 9.03282 8.90283 8.88694 8.90283 8.70605V6.0744C8.90283 5.98687 8.8664 5.90518 8.80567 5.84099C8.74494 5.78264 8.65385 5.74763 8.56275 5.74763L6.02429 5.74763V4.21298C6.02429 3.47192 6.20648 3.09847 7.2085 3.09847H8.65992C8.84818 3.09847 9 2.95259 9 2.7717V0.332604C9 0.151714 8.84818 0.00583516 8.65992 0.00583516Z" fill="#8EB7C1"/>
</svg>
