<svg width="72" height="85" viewBox="0 0 72 85" fill="none" xmlns="http://www.w3.org/2000/svg">
<g clip-path="url(#clip0)">
<path d="M54.3309 50.6444C54.2907 44.4955 54.3661 38.3467 54.1602 32.2028C53.9041 24.4456 50.033 19.7802 42.7075 17.8672C42.0046 17.6823 41.5929 17.9621 41.1159 18.2568C38.2841 20.015 35.136 20.4795 32.3293 18.8512C30.11 17.5625 28.5485 18.3567 26.6306 19.031C21.6599 20.7742 18.8532 24.1709 18.2758 29.3657C17.4323 36.983 17.8791 44.6254 18.0197 52.2578C18.0649 54.8602 20.2741 56.5685 23.0356 56.2887C25.3101 56.059 25.6565 56.8931 25.6314 58.8712C25.531 65.5145 25.6565 72.1629 25.5862 78.8112C25.526 84.4755 31.3552 86.4785 34.8197 83.8562C35.7787 83.1319 36.4012 83.3367 37.2448 83.9011C41.2263 86.5784 46.4832 84.016 46.418 79.006C46.3728 75.6843 46.4079 72.3577 46.4079 69.036C46.4129 69.036 46.423 69.036 46.428 69.036C46.428 65.4646 46.4481 61.8881 46.418 58.3167C46.4079 56.9631 46.6339 56.014 48.3611 56.3187C51.9761 56.9681 54.356 53.991 54.3309 50.6444ZM34.2975 34.4656C34.5987 30.2148 35.4322 26.6284 34.7895 22.9721C34.664 22.2528 35.2314 22.003 35.9243 22.038C36.5669 22.068 37.3151 22.3077 37.0891 22.9671C35.7335 26.9681 38.033 30.7593 37.6565 34.6903C37.5711 35.5994 37.6012 36.5235 37.0339 37.3027C36.7577 37.6773 36.7376 38.3766 36.1552 38.3717C35.4874 38.3667 35.2414 37.7473 35.0255 37.2028C34.6088 36.1139 34.2222 35.02 34.2975 34.4656ZM49.2196 53.8362C47.0355 53.8861 46.433 52.4126 46.428 50.5395C46.423 45.7143 46.423 40.8891 46.418 36.064C46.418 35.3996 46.438 34.7303 46.4029 34.066C46.3577 33.2168 46.3175 32.3177 45.0774 32.4176C43.9678 32.5025 44.0832 33.3617 44.0832 34.0909C44.0682 37.6674 44.0732 41.2438 44.0732 44.8202C44.0732 48.7313 44.0732 52.6374 44.0732 56.5485C44.0732 63.7862 44.0832 71.024 44.0682 78.2568C44.0632 80.9041 42.7025 82.6024 40.6489 82.6224C38.6406 82.6424 37.1895 80.9091 37.1795 78.3017C37.1494 71.1489 37.1694 63.996 37.1644 56.8432C37.1644 56.1788 37.1996 55.5045 37.1042 54.8502C37.0088 54.1858 36.7979 53.5065 35.8992 53.5465C34.9251 53.5864 34.9502 54.3756 34.9402 55C34.9 57.6624 34.9151 60.3247 34.9151 62.987C34.9151 67.8971 34.9251 72.8022 34.91 77.7073C34.9 80.6644 33.5243 82.5874 31.4406 82.6274C29.2565 82.6674 27.9561 80.9141 27.9561 77.8222C27.941 64.016 27.941 50.2048 27.941 36.3986C27.941 35.8142 27.9962 35.2298 27.931 34.6554C27.8255 33.7513 28.2674 32.3776 26.6858 32.4476C25.3502 32.5075 25.6214 33.7463 25.6113 34.5854C25.5711 39.7403 25.5912 44.9001 25.5812 50.055C25.5812 50.9641 25.6916 51.9231 25.1594 52.7273C24.5469 53.6464 23.5778 53.9361 22.5335 53.8062C21.3636 53.6664 20.2841 53.0819 20.3143 51.8232C20.5302 43.3916 18.9636 34.8702 21.4891 26.5585C22.2825 23.976 26.7561 20.6544 29.5025 20.5495C30.5117 20.5095 31.8172 20.9591 31.9025 21.9231C32.0732 23.7862 32.7209 25.5495 32.49 27.5425C32.0381 31.4236 31.0038 35.4346 33.3686 39.1758C35.2816 42.1978 36.9837 42.2478 38.8364 39.2208C40.177 37.028 40.1167 34.6504 39.8556 32.2228C39.5443 29.2558 39.0774 26.2937 39.5293 23.2917C39.8607 21.0839 41.5477 20.2298 43.6364 20.9091C49.782 22.9121 51.8205 27.3577 51.6899 33.3766C51.5644 39.1109 51.6146 44.8552 51.6899 50.5944C51.72 52.4376 51.2882 53.7862 49.2196 53.8362Z" fill="#8EB7C1" stroke="#8EB7C1"/>
<path d="M16.589 67.7073C13.9581 70.2847 13.9731 70.3297 16.4133 72.9371C17.292 73.8761 17.4576 74.4705 15.9012 74.6304C11.9999 75.03 8.09365 75.4196 4.1924 75.8641C2.59575 76.0489 2.37483 75.2198 2.49533 73.9311C2.82169 70.4595 3.0878 66.978 3.40914 63.5065C3.48445 62.7223 3.09282 61.6533 3.95642 61.2388C4.99575 60.7443 5.39742 62.028 5.79909 62.5275C7.33549 64.4505 8.54051 64.1908 9.99657 62.4725C11.2217 61.029 12.5472 59.6304 14.0284 58.4565C15.5447 57.2527 15.4392 56.3037 13.7271 54.9101C12.2911 56.4536 10.7497 57.967 9.38402 59.6304C8.33465 60.9091 7.56645 61.0739 6.47189 59.6853C5.65851 58.6514 4.49868 58.1868 3.11793 58.7313C1.75726 59.2657 1.32546 60.3596 1.215 61.6833C0.823371 66.2338 0.406636 70.7842 0.0300677 75.3347C-0.115539 77.1229 0.64764 78.3466 2.56563 78.2368C7.40076 77.962 12.2459 77.6873 17.061 77.1578C19.9731 76.8382 20.9221 74.1408 18.8484 72.1279C17.3221 70.6443 17.8091 69.6503 19.0744 68.6014C20.6409 67.3077 22.0568 66.009 21.1179 63.5415C19.23 64.6054 18.025 66.2987 16.589 67.7073Z" fill="#707071" stroke="#707071"/>
<path d="M71.0304 62.1778C70.935 60.6494 70.4229 59.4206 68.9819 58.7662C67.4153 58.057 66.1501 58.8462 65.2513 59.975C64.2974 61.1738 63.73 60.7792 62.9317 59.9001C61.3802 58.1918 59.7635 56.5385 58.1718 54.8651C56.5802 56.4386 56.7509 57.5974 58.2472 58.7413C59.0957 59.3906 59.7936 60.2348 60.5568 60.994C63.9559 64.3806 63.9559 64.3756 67.5509 61.1888C67.6463 61.1039 67.8572 61.1589 68.1534 61.1439C68.9768 65.4595 69.3283 69.8352 69.6396 74.2158C69.6898 74.9051 69.9158 75.9341 68.7258 75.8442C64.0614 75.4895 59.3618 75.3397 54.4212 74.2857C55.4756 73.1818 56.1635 72.3676 56.9518 71.6583C57.8103 70.8791 57.8254 70.1049 57.1024 69.3007C55.2647 67.2528 53.397 65.2298 51.3384 62.977C49.9476 66.3586 51.956 67.6524 53.4422 69.1259C54.3108 69.985 54.9384 70.5644 53.5325 71.6134C52.4681 72.4076 51.7702 73.6563 52.3777 75.1349C52.9852 76.6134 54.1802 77.1728 55.7216 77.2727C59.9693 77.5574 64.207 77.9071 68.4547 78.2018C71.4622 78.4116 72.145 77.6823 71.9241 74.5954C71.6279 70.4545 71.2915 66.3187 71.0304 62.1778Z" fill="#707071" stroke="#707071"/>
<path d="M68.7462 6.64837C64.3429 7.00302 59.9395 7.4226 55.5362 7.79223C54.1203 7.91211 52.9002 8.27674 52.3781 9.77025C51.8609 11.2488 52.4684 12.3677 53.6032 13.2568C54.6525 14.0759 54.6977 14.8052 53.6232 15.6294C53.1663 15.979 52.7948 16.4436 52.3881 16.8582C51.7354 17.5125 52.3128 17.8572 52.7295 18.2618C53.0709 18.5914 53.2668 19.036 53.9446 18.7413C57.0877 17.3776 57.896 14.1609 55.6165 11.7732C55.2902 11.4286 54.6726 11.3087 54.8182 10.6644C54.9638 10.015 55.5462 10.0899 56.0232 10.045C59.9245 9.69033 63.8358 9.39562 67.732 8.98603C69.419 8.80621 69.7504 9.57544 69.5947 11.009C69.2182 14.4755 68.9219 17.9521 68.5102 21.4136C68.4299 22.1029 68.6508 23.1169 67.8826 23.4266C66.9989 23.7812 66.6726 22.7673 66.1906 22.2478C64.8249 20.7742 63.5345 20.5695 62.1236 22.2578C61.1195 23.4566 60.0349 24.6104 58.845 25.6144C57.4843 26.7683 57.399 27.8721 58.373 29.041C59.8944 27.6923 61.3354 26.4636 62.7161 25.1649C63.6701 24.2658 64.4885 23.7862 65.5127 25.1149C66.3814 26.2438 67.6416 26.9081 69.0073 26.2288C70.2324 25.6194 70.9102 24.4506 71.0106 22.997C71.3119 18.6064 71.6885 14.2258 71.9696 9.83518C72.1303 7.3227 71.2265 6.44357 68.7462 6.64837Z" fill="#707071" stroke="#707071"/>
<path d="M1.21971 23.3367C1.33519 24.6803 1.89251 25.7842 3.17786 26.2687C4.48832 26.7633 5.61802 26.3337 6.46154 25.1898C7.50589 23.7762 8.45484 24.1908 9.45902 25.2947C10.7343 26.6883 12.0799 28.022 13.5611 29.5455C15.2381 25.969 12.2808 24.8502 10.7193 23.1569C8.17367 20.4046 8.09333 20.4645 5.33685 22.8572C4.90506 23.2318 4.57368 23.7962 3.87577 23.4416C3.31845 23.1569 3.4741 22.5824 3.42891 22.1179C3.09251 18.5664 2.87661 15.005 2.40966 11.4735C2.12849 9.3107 2.96196 8.86614 4.91008 9.09591C8.05316 9.47054 11.2113 9.73028 14.3745 9.93008C14.6808 9.95006 15.1075 10.1099 15.4791 10.1199C13.9527 10.0699 15.0272 7.7073 15.0322 7.69232C14.8866 7.65735 14.736 7.62738 14.5803 7.59741C10.6239 6.86314 6.59208 7.12288 2.61552 6.65335C0.737701 6.43357 -0.120874 7.67234 0.0197115 9.46055C0.386238 14.0859 0.818036 18.7113 1.21971 23.3367Z" fill="#707071" stroke="#707071"/>
<path d="M41.2712 5.82918C41.2662 6.03897 41.2813 6.24876 41.3466 6.46355C42.3558 9.82518 40.488 12.7123 37.0235 13.5215C34.6436 14.0809 32.2938 12.8771 31.1039 10.6693C31.1089 10.6793 31.1139 10.6893 31.119 10.6993C32.1432 12.6574 30.4512 13.9511 30.4512 13.9511C30.7022 14.2008 31.0838 14.4056 31.4051 14.6054C35.9641 17.4775 41.6478 15.8342 43.626 10.8591C44.5951 8.42658 44.2336 4.94507 42.1449 2.75226L41.2712 5.82918Z" fill="#8EB7C1"/>
<path d="M16.8399 11.5385C15.8407 12.1828 15.1228 13.027 14.5353 13.9561C14.0131 14.7852 14.7412 15.3397 15.2131 15.8741C15.7604 16.4935 16.3529 17.0879 16.9805 17.6224C17.6332 18.1768 18.0048 19.5355 19.3102 18.3167C20.6156 17.1029 19.4307 16.6384 18.7629 16.014C17.834 15.1499 17.1211 14.3057 18.4566 13.2018C17.5077 14.1459 16.8449 11.5585 16.8399 11.5385Z" fill="#707071" stroke="#707071"/>
<path d="M18.7824 12.8721C18.672 12.992 18.5615 13.1019 18.4561 13.2018C18.5766 13.1069 18.6971 12.992 18.7824 12.8721Z" fill="#707071"/>
<path d="M30.8378 1.70831C30.7424 1.80321 30.647 1.89812 30.5566 1.99802C31.0186 1.56845 31.5357 1.13388 32.1382 0.709305C31.7064 0.93408 31.2696 1.26375 30.8378 1.70831Z" fill="#8EB7C1"/>
<path d="M34.2872 2.55746C34.2722 2.56245 34.2571 2.56745 34.2471 2.57244C34.3023 2.55746 34.3626 2.53748 34.4178 2.52249C34.3726 2.53248 34.3324 2.54247 34.2872 2.55746Z" fill="#8EB7C1"/>
<path d="M36.0142 2.30769C35.5322 2.3027 35.0151 2.36264 34.4678 2.50749C34.9448 2.3976 35.4619 2.34266 36.0192 2.31269L36.0142 2.30769Z" fill="#8EB7C1"/>
<path d="M33.4837 2.84717C32.7457 3.17184 32.1733 3.60141 31.7314 4.09592C31.9524 4.04097 32.1783 3.89612 32.4193 3.63138C32.7356 3.29172 33.0921 3.03698 33.4837 2.84717Z" fill="#8EB7C1"/>
<path d="M32.1484 0.704313C32.1786 0.689328 32.515 0.549468 33.0723 0.394623C32.771 0.439578 32.4597 0.544473 32.1484 0.704313Z" fill="#8EB7C1"/>
<path d="M15.4787 10.1249C17.01 10.1748 16.8393 11.5385 16.8393 11.5385C16.8443 11.5584 17.5071 14.1459 18.4611 13.2018C18.5615 13.1019 18.672 12.987 18.7874 12.8721C19.7364 11.8731 20.9514 10.2997 20.1682 9.23078C19.2945 8.03697 15.0368 7.69731 15.0368 7.69731C15.0268 7.7123 13.9523 10.0699 15.4787 10.1249Z" fill="#707071" stroke="#707071"/>
<path d="M30.4563 13.9511C30.4563 13.9511 32.1433 12.6524 31.124 10.6993C31.119 10.6893 31.114 10.6793 31.109 10.6693C30.3458 9.18083 29.9341 6.1089 31.7316 4.10091C32.1734 3.6064 32.7508 3.17683 33.4839 2.85216C33.7199 2.74726 33.9759 2.65236 34.242 2.57244C34.2571 2.56744 34.2721 2.56245 34.2822 2.55745C34.3274 2.54247 34.3675 2.53747 34.4127 2.52249C34.4278 2.51749 34.4479 2.5125 34.4629 2.5075C35.0102 2.36265 35.5274 2.29771 36.0094 2.3077C39.4839 2.35266 41.2663 5.82918 41.2663 5.82918L42.1449 2.75725L42.15 2.74726C38.9918 -0.729263 34.8797 -0.109882 33.0671 0.394613C32.5148 0.549459 32.1734 0.689319 32.1433 0.704304L32.1383 0.709299C32.1383 0.709299 32.1383 0.709299 32.1332 0.709299C31.5307 1.13387 31.0086 1.56844 30.5517 1.99801C24.3107 7.86215 30.4563 13.9511 30.4563 13.9511Z" fill="#8EB7C1" stroke="#8EB7C1"/>
</g>
<defs>
<clipPath id="clip0">
<rect width="71.9898" height="85" fill="white"/>
</clipPath>
</defs>
</svg>
