<svg width="166" height="45" viewBox="0 0 166 45" fill="none" xmlns="http://www.w3.org/2000/svg">
<path d="M162.479 39.4413C162.457 37.6509 162.404 35.8605 162.432 34.0731C162.445 33.1995 162.106 32.9526 161.229 32.9372C157.087 32.8723 157.087 32.8507 157.068 36.944C157.068 37.2496 157.106 37.5645 157.056 37.8639C156.958 38.4103 157.407 39.3333 156.521 39.3857C155.66 39.4351 154.513 40.0896 153.89 38.8332C153.902 34.7337 153.924 30.6312 153.928 26.5318C153.931 23.8678 153.912 24.4574 156.103 24.3246C156.454 24.374 156.825 24.3617 157.103 24.6333C157.087 26.2231 157.1 27.8129 157.05 29.4026C157.024 30.2052 157.357 30.4429 158.158 30.4923C162.448 30.7578 162.445 30.7763 162.448 26.5287C162.448 24.3215 162.609 24.1826 164.5 24.3524C165.32 24.4265 165.579 24.8062 165.576 25.5409C165.567 29.8008 165.557 34.0577 165.589 38.3177C165.595 39.2005 165.253 39.5216 164.379 39.4598C163.746 39.4166 163.113 39.4444 162.479 39.4413Z" fill="#8EB7C1"/>
<path d="M71.8519 25.9277C71.8459 26.0437 71.8398 26.1566 71.8338 26.2726C71.4274 27.5424 70.8915 28.0369 69.4222 27.3501C65.9419 25.7201 63.4761 27.3684 63.2954 31.2572C63.2382 32.53 63.2984 33.7784 63.7651 35.0055C64.2739 36.3455 65.2133 37.0353 66.556 37.2307C68.802 37.5573 69.7022 36.5561 69.2928 34.3187C69.1332 33.4488 68.5311 33.6441 68.0343 33.6441C67.0649 33.6472 66.544 33.3206 66.55 32.2309C66.556 31.0038 67.3629 31.187 68.1035 31.1839C71.9482 31.1534 72.0115 31.2175 71.9934 35.033C71.9904 35.4389 71.9934 35.8449 71.9934 36.2539C71.9934 38.9797 71.9964 39.0011 69.344 39.3765C68.3564 39.5169 67.3509 39.6207 66.3543 39.5963C60.9381 39.4681 59.9265 34.5537 60.3991 30.3079C60.6219 28.2933 61.9496 26.8312 62.7625 25.1097C62.8378 25.1066 62.9131 25.0913 62.9823 25.07C63.2322 25.1799 63.4129 25.0517 63.6537 24.9662C66.5289 23.9345 69.3018 23.9925 71.8519 25.9277Z" fill="#8EB7C1"/>
<path d="M121.707 38.5282C121.701 38.6819 121.753 38.9308 121.683 38.9708C120.57 39.6193 119.377 39.7361 118.131 39.4595C116.874 39.1798 116.748 38.1778 116.572 37.142C116.099 34.3204 115.844 31.4589 114.89 28.7295C114.595 27.8812 114.454 26.9591 114.374 26.0585C114.319 25.4253 114.005 24.5309 115.13 24.4049C116.127 24.2912 117.19 24.202 117.452 25.5176C117.907 27.8197 118.285 30.1403 118.697 32.4516C118.829 33.1985 118.977 33.9423 119.115 34.6954C120.016 34.6739 119.905 33.9762 120.001 33.4752C120.471 30.9671 120.969 28.459 121.335 25.9356C121.477 24.9551 121.87 24.6754 122.808 24.66C125.415 24.617 125.376 24.5893 125.76 27.2603C126.172 30.1218 126.667 32.9711 127.411 35.8634C127.697 34.1975 127.968 32.5316 128.272 30.8687C128.527 29.461 128.856 28.0656 129.087 26.6548C129.502 24.1375 129.797 23.9346 132.272 24.6815C132.441 26.0493 131.374 27.2849 131.854 28.6865C130.68 31.548 130.535 34.6585 129.711 37.5999C129.539 38.2177 129.776 39.232 128.853 39.3581C127.706 39.5148 126.501 39.6347 125.372 39.2751C124.982 39.1521 124.841 38.562 124.844 38.0825C124.844 37.5846 125 37.0559 124.561 36.6441C124.604 33.7702 123.743 31.0163 123.42 28.1732C123.106 29.3596 122.897 30.5491 122.685 31.7386C122.473 32.9342 122.233 34.1268 122.052 35.3255C121.886 36.3859 121.391 37.4155 121.707 38.5282Z" fill="#8EB7C1"/>
<path d="M109.806 10.4217C109.159 12.9147 108.462 15.3956 107.895 17.907C107.646 19.0051 107.055 19.2162 106.113 19.1887C105.203 19.1611 104.606 19.0235 104.358 17.8886C103.79 15.2854 103.043 12.722 102.165 10.1892C101.994 13.4623 101.769 16.7323 101.675 20.0054C101.637 21.3238 101.001 21.4156 99.9849 21.4187C98.735 21.4248 99.0069 20.6447 99.0423 19.8831C99.1782 17.0107 99.3053 14.1353 99.4116 11.2629C99.4648 9.84355 100.112 8.52208 100.017 7.07825C100.006 6.92224 100.168 6.69282 100.31 6.59799C101.477 5.82102 103.681 6.67141 104.045 8.03265C104.733 10.6266 105.407 13.2268 106.134 16.0074C106.781 13.4837 107.398 11.0947 108.007 8.70256C108.577 6.46034 109.345 6.01373 111.591 6.48787C112.285 6.6347 112.291 7.10272 112.327 7.59827C112.56 10.7459 112.767 13.8936 113 17.0413C113.089 18.2526 113.172 19.4701 113.358 20.6662C113.426 21.0944 113.429 21.3177 113.021 21.4431C111.378 21.957 110.332 21.2015 110.356 19.415C110.391 16.4142 110.32 13.4225 109.806 10.4217Z" fill="#707071"/>
<path d="M147.532 21.5961C146.687 21.6735 146.681 20.8525 146.459 20.3693C145.018 17.2402 143.629 14.0833 142.033 10.5081C142.033 11.6296 142.03 12.3391 142.033 13.0485C142.044 15.4154 142.068 17.7824 142.071 20.1493C142.071 20.6419 142.22 21.2088 141.656 21.5155C141.547 21.5279 141.439 21.5434 141.328 21.5558C139.863 21.7324 139.477 21.0477 139.524 19.5204C139.638 15.7593 139.542 11.9921 139.586 8.22793C139.592 7.61451 139.135 6.54877 140.167 6.48681C141.246 6.42175 142.568 5.73708 143.272 7.50298C144.336 10.1766 145.564 12.7759 146.728 15.4031C146.871 15.7252 147.05 16.032 147.21 16.3449C147.26 16.4998 147.31 16.6516 147.357 16.8065C147.471 17.0729 147.585 17.3393 147.737 17.6925C147.935 17.2061 147.883 16.8684 147.769 16.5369L147.78 16.4719C147.778 13.696 147.78 10.917 147.766 8.14118C147.763 7.29231 147.933 6.58595 148.851 6.41866C149.713 6.26065 150.309 6.33501 150.289 7.59592C150.225 11.8124 150.239 16.032 150.277 20.2484C150.286 21.1004 149.999 21.4784 149.236 21.5248C149.038 21.5341 148.836 21.5434 148.637 21.5527C148.389 21.5496 148.14 21.5496 147.892 21.5465C147.757 21.4319 147.637 21.466 147.532 21.5961Z" fill="#707071"/>
<path d="M103.785 39.5999C102.947 39.5907 102.11 39.5815 101.272 39.5723C100.793 39.3949 100.313 39.1929 99.794 39.4285C98.9593 38.6973 98.103 38.0028 97.3332 37.1859C95.7906 35.5459 96.0255 28.5028 97.6393 26.5294C99.219 24.5989 101.791 23.8309 104.62 24.5897C106.697 25.1465 108.419 27.3739 108.728 29.6349C108.988 31.5257 108.948 33.3767 108.555 35.2308C108.147 36.2588 107.343 37.1033 107.127 38.2231L107.105 38.2445C105.89 38.4372 105.04 39.5019 103.785 39.5999ZM105.856 32.1254C105.526 30.8036 105.776 29.433 105.062 28.2183C104.499 27.2576 103.785 26.6488 102.617 26.6702C101.414 26.6916 100.449 27.2117 100.054 28.304C99.1386 30.8159 98.9717 33.4012 100.137 35.8764C101.012 37.7366 103.402 37.8712 104.737 36.2955C105.795 35.0472 105.507 33.496 105.856 32.1254Z" fill="#8EB7C1"/>
<path d="M61.6329 21.57C61.0751 21.1081 61.2374 20.4509 61.2374 19.8557C61.2256 16.0085 61.2994 12.1552 61.199 8.31109C61.1607 6.78896 61.5148 6.07285 63.0435 6.36735C63.2796 6.41385 63.5305 6.37975 63.7755 6.38285C63.864 6.47895 63.9496 6.57506 64.0381 6.67426C64.0322 8.27389 64.047 9.87352 64.0145 11.4731C63.9998 12.2079 64.2654 12.5365 64.9678 12.4497C65.015 12.4435 65.0652 12.4404 65.1153 12.4435C69.0966 12.5737 69.1349 12.5706 69.0759 8.34209C69.0582 7.02766 69.1261 6.17515 70.7463 6.33635C71.6966 6.42935 71.9858 6.66806 71.974 7.68178C71.9268 11.8607 71.9121 16.0395 71.9947 20.2184C72.0213 21.4956 71.3749 21.4987 70.5427 21.508C69.7075 21.5173 68.9756 21.5359 69.073 20.2401C69.1763 18.8544 69.0641 17.4563 69.1113 16.0643C69.1379 15.2459 68.9579 14.8243 68.0695 14.8956C67.0927 14.9731 66.101 14.9855 65.1242 14.9018C64.1532 14.8181 63.9761 15.2769 64.0086 16.1635C64.0617 17.6051 64.0352 19.0528 64.0116 20.4974C64.0027 20.9469 64.2624 21.6134 63.4243 21.601C62.8252 21.291 62.229 21.353 61.6329 21.57Z" fill="#707071"/>
<path d="M84.7625 34.5697C84.5082 33.5894 83.7388 33.6612 83.0076 33.7986C82.2128 33.9484 82.1015 34.576 82.1524 35.2378C82.2604 36.6802 82.3113 38.1194 82.111 39.5555C81.5801 39.5618 81.046 39.5274 80.5246 39.5836C79.4405 39.6991 79.1861 39.1934 79.1956 38.2162C79.237 34.1077 79.2433 29.9991 79.1956 25.8906C79.1829 24.7636 79.5327 24.2609 80.7312 24.314C82.1047 24.3764 83.4908 24.2359 84.8611 24.3421C86.8386 24.4951 88.6412 25.0664 89.401 27.1488C90.1641 29.2405 89.6808 31.0263 87.929 32.4624C87.6238 32.7121 87.1374 32.8682 87.6079 33.4146C88.7334 34.7164 89.0704 36.3898 89.7349 37.9102C90.2849 39.1653 89.9892 39.5399 88.5776 39.593C87.538 39.6305 87.0452 39.0747 86.6891 38.2443C86.244 37.1984 86.1201 36.0214 85.3634 35.1036C85.3093 34.7851 85.2171 34.5042 84.7911 34.576L84.7625 34.5697ZM82.1015 28.9189C82.537 29.79 81.2272 31.5039 83.529 31.4446C85.5573 31.3915 86.5493 30.7016 86.5747 29.1281C86.6065 27.2611 85.729 26.5993 83.5162 26.5212C81.3194 26.4463 82.4798 28.0448 82.1015 28.9189Z" fill="#8EB7C1"/>
<path d="M88.4489 21.2846C86.3429 21.5287 84.2085 22.0943 82.2736 20.6541C80.8231 19.5755 80.1011 18.1971 80.1233 16.3952C80.1581 13.5148 80.1138 10.6313 80.1264 7.75086C80.1296 7.09875 79.8161 6.23957 81.0955 6.30756C82.15 6.36628 83.0336 6.53008 83.0526 7.78486C83.0874 9.99772 83.0811 12.2106 83.1001 14.4235C83.1064 15.091 83.0906 15.7648 83.1508 16.4292C83.3249 18.3485 84.2877 19.3035 85.9724 19.2819C87.6572 19.2602 88.6611 18.2527 88.7022 16.3489C88.7624 13.521 88.7687 10.6869 88.7086 7.85904C88.6864 6.79278 88.8542 6.26429 90.14 6.30447C91.2864 6.34156 91.8469 6.50536 91.7899 7.81886C91.6791 10.3871 91.7234 12.9647 91.7646 15.5361C91.7867 16.9577 91.5144 18.2898 90.8525 19.5507C90.1336 20.1009 89.4179 20.6479 88.6991 21.198C88.6294 21.1795 88.5756 21.2042 88.5407 21.266C88.5376 21.266 88.4489 21.2846 88.4489 21.2846Z" fill="#707071"/>
<path d="M126.018 18.0011C125.771 18.0011 125.514 18.0446 125.276 17.9949C123.861 17.6969 123.263 18.3675 122.959 19.7772C122.58 21.5378 121.967 21.8266 120.344 21.4477C119.736 21.3049 119.522 21.1372 119.837 20.4107C121.607 16.3462 122.706 12.0332 124.064 7.8166C124.415 6.72362 124.856 6.26718 126.021 6.30444C127.2 6.3417 127.888 6.56837 128.27 7.90043C129.398 11.8501 130.691 15.75 131.888 19.6779C132.055 20.2275 132.749 20.9509 131.808 21.3639C130.959 21.7365 130.048 21.752 129.422 20.8081C129.312 20.6404 129.244 20.4417 129.169 20.2554C128.278 18.0105 128.278 18.0105 126.018 18.0011ZM126.009 9.16419C125.374 11.4868 124.826 13.4957 124.24 15.6475C125.196 15.6475 126.027 15.6103 126.852 15.6568C127.644 15.7034 127.775 15.3867 127.555 14.6539C127.045 12.943 126.584 11.2135 126.009 9.16419Z" fill="#707071"/>
<path d="M141.223 33.1975C141.223 31.7024 141.117 30.195 141.252 28.7153C141.395 27.1119 140.861 26.5578 139.42 26.7776C138.464 26.9231 137.574 26.9107 137.703 25.3661C137.769 24.5705 138.039 24.2919 138.76 24.3012C141.295 24.3322 143.827 24.3229 146.363 24.3291C146.966 24.3291 147.531 24.3631 147.586 25.2453C147.635 26.0563 147.224 26.4773 146.589 26.7404C146.503 26.7776 146.4 26.7652 146.308 26.7869C145.596 26.9664 144.597 26.3659 144.209 27.2078C143.902 27.8765 144.094 28.8206 144.091 29.6409C144.08 32.3742 143.919 35.1198 144.129 37.8345C144.301 40.0664 142.731 39.4349 141.883 39.5804C140.787 39.7661 141.266 38.5774 141.24 37.9955C141.169 36.4013 141.214 34.801 141.214 33.2006C141.22 33.1975 141.223 33.1975 141.223 33.1975Z" fill="#8EB7C1"/>
<path d="M46.4593 33.6515C43.6905 28.7744 36.1076 15.6281 35.712 14.9444C33.1161 10.22 30.3384 5.60705 27.2443 1.19072C26.1895 -0.314645 24.2528 -0.379202 22.9196 0.920753C22.3746 1.45482 12.4858 17.9023 10.9974 20.4465C9.58218 22.8674 4.39606 31.973 3.83936 32.8738C2.84901 34.388 2.34798 35.6175 1.17011 37.5953C0.299899 39.0538 -0.371074 40.4652 0.229579 42.1819C1.45432 44.5558 3.77197 44.503 5.91674 44.6233C17.2031 45.2572 28.5013 44.9021 39.7935 44.8904C41.827 44.8874 43.8575 44.5294 45.8968 44.4296C47.7017 44.3416 49.0788 43.696 49.7937 41.95C49.8464 41.7446 49.8992 41.5422 49.9519 41.3367C49.9724 41.2311 49.9929 41.1255 50.0164 41.0198C50.0164 39.981 47.2944 35.1245 46.4593 33.6515ZM28.9613 40.2011C23.9656 39.5233 18.967 38.8601 13.9684 38.2204C11.9467 37.9621 9.9162 37.7743 7.88863 37.5748C5.6794 37.3547 4.859 35.729 5.91967 33.7395C6.28006 33.0646 25.4248 8.16588 26.2862 7.24153C28.4954 6.87472 28.8177 6.98036 29.8022 9.07555C32.7205 15.2848 35.5157 21.5498 38.0297 27.9381C39.2954 31.1601 40.6667 34.341 41.9881 37.5425C42.7997 39.5057 42.6738 40.1307 41.1882 41.5363C41.1882 41.5363 41.1882 41.5363 41.1853 41.5363C39.8228 41.8151 31.6921 40.5709 28.9613 40.2011Z" fill="#838385"/>
<path d="M34.5428 35.9555C34.5574 37.5489 33.866 38.0683 32.4273 37.631C27.2266 36.0494 22.0346 34.4354 16.8397 32.8303C15.6764 32.4723 14.5044 32.1407 13.3588 31.724C12.1106 31.2721 11.8293 30.1482 12.7816 29.2239C17.5692 24.5757 22.3715 19.9452 27.4873 15.6521C28.5861 14.7307 29.6702 15.1562 30.0628 16.6938C30.9916 20.3208 31.8853 23.9566 32.7438 27.5982C33.3122 30.0132 33.8015 32.4459 34.323 34.8727C34.4168 35.3011 34.4959 35.7325 34.5428 35.9555Z" fill="#8EB7C1"/>
</svg>
