<svg width="30" height="30" viewBox="0 0 30 30" fill="none" xmlns="http://www.w3.org/2000/svg">
<path d="M25.3142 28.9999C21.8341 28.5447 19.0137 27.4294 16.3753 25.8589C10.8709 22.5813 6.54932 18.1884 3.50146 12.5436C2.25047 10.1992 1.29517 7.76377 1.02222 5.07796C0.953987 4.32684 0.999477 3.78057 1.79556 3.43916C3.50146 2.73356 5.16186 1.93692 6.86775 1.27685C7.16344 1.16304 7.80031 1.34513 7.98227 1.5955C9.32424 3.39363 10.6207 5.26005 11.849 7.12646C12.2584 7.71825 12.2356 8.42385 11.5533 8.92459C11.3941 9.0384 11.2803 9.19773 11.1439 9.31153C9.46071 11.0186 9.39248 11.0414 10.7344 13.0444C12.5768 15.7985 14.8968 18.0518 17.7855 19.7134C18.5816 20.1686 19.3322 20.3507 19.9235 19.4175C19.9463 19.3947 19.9918 19.372 20.0145 19.3492C21.9479 17.46 22.0161 17.4373 24.2906 18.9167C25.2914 19.5768 26.2922 20.2369 27.2475 20.988C29.3401 22.6496 28.8624 22.1488 28.1801 24.5615C27.8389 25.7906 27.0883 26.9514 26.4059 28.0667C26.1557 28.5219 25.5644 28.7951 25.3142 28.9999ZM10.8482 7.94586C9.71091 6.21602 8.68737 4.6455 7.61835 3.1205C7.45913 2.87013 7.00423 2.57423 6.82226 2.64252C5.36657 3.25707 3.95636 3.9399 2.52341 4.59997C2.70537 5.73803 2.84184 6.87609 3.04655 7.99139C3.13753 8.51489 3.31949 9.01564 3.5242 9.49362C5.38931 14.0686 8.36894 17.847 12.0537 21.1018C15.3517 24.038 19.082 26.2458 23.3808 27.3611C24.5181 27.657 25.4279 27.6798 25.9283 26.3596C26.2012 25.6085 26.5879 24.9257 26.9291 24.1973C27.384 23.2186 27.2475 22.422 26.2467 21.8302C25.4961 21.3977 24.8365 20.8287 24.1314 20.3507C22.2208 19.0988 22.2208 19.0988 20.5604 20.7149C20.4012 20.8742 20.2875 21.1473 20.1055 21.2156C19.6506 21.3749 19.0592 21.6481 18.718 21.4887C17.3761 20.8514 16.0341 20.2141 14.8741 19.3492C12.1219 17.2552 9.80189 14.7514 8.45992 11.4738C8.14149 10.6772 8.27796 10.1309 8.93757 9.60743C9.57444 9.12944 10.1431 8.58318 10.8482 7.94586Z" fill="#8EB7C1" stroke="#8EB7C1"/>
</svg>
